<svg xmlns="http://www.w3.org/2000/svg" xmlns:xlink="http://www.w3.org/1999/xlink" width="442" zoomAndPan="magnify" viewBox="0 0 331.5 236.249991" height="315" preserveAspectRatio="xMidYMid meet" version="1.2"><defs><clipPath id="4dfa48e9b2"><path d="M 2 195 L 303.96875 195 L 303.96875 226.320312 L 2 226.320312 Z M 2 195 "/></clipPath><clipPath id="900d976791"><path d="M 0.046875 5 L 17 5 L 17 24 L 0.046875 24 Z M 0.046875 5 "/></clipPath><clipPath id="fbf16289c0"><rect x="0" width="302" y="0" height="32"/></clipPath><clipPath id="1f319d513b"><path d="M 2.894531 16 L 139.59375 16 L 139.59375 120.03125 L 2.894531 120.03125 Z M 2.894531 16 "/></clipPath><clipPath id="09484fcb78"><path d="M 45.253906 12.21875 L 89 12.21875 L 89 44 L 45.253906 44 Z M 45.253906 12.21875 "/></clipPath><clipPath id="08df2ff25c"><path d="M 62 52 L 77 52 L 77 57.230469 L 62 57.230469 Z M 62 52 "/></clipPath><clipPath id="0058c0948e"><path d="M 0.132812 119 L 285 119 L 285 197 L 0.132812 197 Z M 0.132812 119 "/></clipPath><clipPath id="5d2876d259"><rect x="0" width="285" y="0" height="78"/></clipPath><clipPath id="6d5feade33"><rect x="0" width="304" y="0" height="227"/></clipPath></defs><g id="d762e8a774"><g transform="matrix(1,0,0,1,20,0)"><g clip-path="url(#6d5feade33)"><g clip-rule="nonzero" clip-path="url(#4dfa48e9b2)"><g transform="matrix(1,0,0,1,2,195)"><g id="7c99e51608" clip-path="url(#fbf16289c0)"><g clip-rule="nonzero" clip-path="url(#900d976791)"><g style="fill:#000000;fill-opacity:1;"><g transform="translate(0.198214, 23.967981)"><path style="stroke:none" d="M 8.40625 0 L 9.140625 -4.515625 L 5.59375 -4.515625 L 4.84375 0 L 2 0 L 2.75 -4.515625 L 0.25 -4.515625 L 0.734375 -7.359375 L 3.21875 -7.359375 L 3.78125 -10.84375 L 1.296875 -10.84375 L 1.78125 -13.6875 L 4.25 -13.6875 L 5 -18.1875 L 7.828125 -18.1875 L 7.09375 -13.6875 L 10.65625 -13.6875 L 11.390625 -18.1875 L 14.234375 -18.1875 L 13.5 -13.6875 L 15.984375 -13.6875 L 15.515625 -10.84375 L 13.015625 -10.84375 L 12.453125 -7.359375 L 14.9375 -7.359375 L 14.46875 -4.515625 L 11.984375 -4.515625 L 11.25 0 Z M 6.0625 -7.359375 L 9.609375 -7.359375 L 10.1875 -10.84375 L 6.625 -10.84375 Z M 6.0625 -7.359375 "/></g></g></g><g style="fill:#000000;fill-opacity:1;"><g transform="translate(14.917583, 23.967981)"><path style="stroke:none" d="M 12.84375 -18.1875 L 16.671875 -18.1875 L 16.671875 -6.171875 C 16.671875 -4.796875 16.347656 -3.628906 15.703125 -2.671875 C 15.054688 -1.710938 14.164062 -0.984375 13.03125 -0.484375 C 11.894531 0.00390625 10.59375 0.25 9.125 0.25 C 7.65625 0.25 6.351562 0.00390625 5.21875 -0.484375 C 4.082031 -0.984375 3.191406 -1.710938 2.546875 -2.671875 C 1.898438 -3.628906 1.578125 -4.796875 1.578125 -6.171875 L 1.578125 -18.1875 L 5.421875 -18.1875 L 5.421875 -6.296875 C 5.421875 -5.328125 5.769531 -4.5625 6.46875 -4 C 7.175781 -3.445312 8.0625 -3.171875 9.125 -3.171875 C 10.195312 -3.171875 11.082031 -3.445312 11.78125 -4 C 12.488281 -4.5625 12.84375 -5.328125 12.84375 -6.296875 Z M 12.84375 -18.1875 "/></g></g><g style="fill:#000000;fill-opacity:1;"><g transform="translate(31.635473, 23.967981)"><path style="stroke:none" d="M 8.765625 -13.640625 L 8.765625 -10.796875 L 6.203125 -10.796875 L 6.203125 -4.1875 C 6.203125 -3.664062 6.316406 -3.3125 6.546875 -3.125 C 6.785156 -2.945312 7.097656 -2.859375 7.484375 -2.859375 C 7.660156 -2.859375 7.835938 -2.875 8.015625 -2.90625 C 8.191406 -2.9375 8.328125 -2.960938 8.421875 -2.984375 L 9.015625 -0.171875 C 8.828125 -0.109375 8.5625 -0.0390625 8.21875 0.03125 C 7.875 0.113281 7.457031 0.164062 6.96875 0.1875 C 5.59375 0.25 4.488281 -0.046875 3.65625 -0.703125 C 2.820312 -1.359375 2.410156 -2.359375 2.421875 -3.703125 L 2.421875 -10.796875 L 0.546875 -10.796875 L 0.546875 -13.640625 L 2.421875 -13.640625 L 2.421875 -16.921875 L 6.203125 -16.921875 L 6.203125 -13.640625 Z M 8.765625 -13.640625 "/></g></g><g style="fill:#000000;fill-opacity:1;"><g transform="translate(40.110626, 23.967981)"><path style="stroke:none" d="M 5.296875 -7.890625 L 5.296875 0 L 1.515625 0 L 1.515625 -18.1875 L 5.1875 -18.1875 L 5.1875 -11.234375 L 5.34375 -11.234375 C 5.65625 -12.046875 6.15625 -12.679688 6.84375 -13.140625 C 7.53125 -13.597656 8.390625 -13.828125 9.421875 -13.828125 C 10.847656 -13.828125 11.992188 -13.367188 12.859375 -12.453125 C 13.722656 -11.546875 14.148438 -10.289062 14.140625 -8.6875 L 14.140625 0 L 10.359375 0 L 10.359375 -8.015625 C 10.359375 -8.859375 10.144531 -9.507812 9.71875 -9.96875 C 9.289062 -10.4375 8.691406 -10.671875 7.921875 -10.671875 C 7.148438 -10.671875 6.519531 -10.425781 6.03125 -9.9375 C 5.539062 -9.457031 5.296875 -8.773438 5.296875 -7.890625 Z M 5.296875 -7.890625 "/></g></g><g style="fill:#000000;fill-opacity:1;"><g transform="translate(54.199349, 23.967981)"><path style="stroke:none" d="M 5.40625 0.25 C 4.101562 0.25 3.019531 -0.0859375 2.15625 -0.765625 C 1.300781 -1.441406 0.875 -2.457031 0.875 -3.8125 C 0.875 -4.832031 1.113281 -5.628906 1.59375 -6.203125 C 2.070312 -6.785156 2.695312 -7.210938 3.46875 -7.484375 C 4.25 -7.753906 5.09375 -7.929688 6 -8.015625 C 7.175781 -8.128906 8.019531 -8.25 8.53125 -8.375 C 9.039062 -8.507812 9.296875 -8.796875 9.296875 -9.234375 L 9.296875 -9.296875 C 9.296875 -9.859375 9.117188 -10.289062 8.765625 -10.59375 C 8.421875 -10.90625 7.925781 -11.0625 7.28125 -11.0625 C 6.59375 -11.0625 6.046875 -10.910156 5.640625 -10.609375 C 5.242188 -10.316406 4.976562 -9.941406 4.84375 -9.484375 L 1.34375 -9.765625 C 1.601562 -11.015625 2.25 -12.003906 3.28125 -12.734375 C 4.320312 -13.460938 5.660156 -13.828125 7.296875 -13.828125 C 8.304688 -13.828125 9.25 -13.664062 10.125 -13.34375 C 11.007812 -13.019531 11.722656 -12.519531 12.265625 -11.84375 C 12.804688 -11.164062 13.078125 -10.285156 13.078125 -9.203125 L 13.078125 0 L 9.5 0 L 9.5 -1.890625 L 9.390625 -1.890625 C 9.054688 -1.253906 8.554688 -0.738281 7.890625 -0.34375 C 7.234375 0.0507812 6.40625 0.25 5.40625 0.25 Z M 6.484375 -2.359375 C 7.316406 -2.359375 8 -2.597656 8.53125 -3.078125 C 9.0625 -3.554688 9.328125 -4.15625 9.328125 -4.875 L 9.328125 -6.328125 C 9.179688 -6.222656 8.953125 -6.128906 8.640625 -6.046875 C 8.328125 -5.972656 7.992188 -5.910156 7.640625 -5.859375 C 7.285156 -5.804688 6.972656 -5.757812 6.703125 -5.71875 C 6.035156 -5.613281 5.5 -5.421875 5.09375 -5.140625 C 4.6875 -4.867188 4.484375 -4.46875 4.484375 -3.9375 C 4.484375 -3.414062 4.671875 -3.019531 5.046875 -2.75 C 5.421875 -2.488281 5.898438 -2.359375 6.484375 -2.359375 Z M 6.484375 -2.359375 "/></g></g><g style="fill:#000000;fill-opacity:1;"><g transform="translate(67.186665, 23.967981)"><path style="stroke:none" d="M 7.671875 0.265625 C 6.296875 0.265625 5.101562 -0.0234375 4.09375 -0.609375 C 3.09375 -1.203125 2.316406 -2.023438 1.765625 -3.078125 C 1.222656 -4.140625 0.953125 -5.367188 0.953125 -6.765625 C 0.953125 -8.179688 1.222656 -9.414062 1.765625 -10.46875 C 2.316406 -11.53125 3.09375 -12.351562 4.09375 -12.9375 C 5.101562 -13.53125 6.296875 -13.828125 7.671875 -13.828125 C 9.054688 -13.828125 10.25 -13.53125 11.25 -12.9375 C 12.25 -12.351562 13.019531 -11.53125 13.5625 -10.46875 C 14.113281 -9.414062 14.390625 -8.179688 14.390625 -6.765625 C 14.390625 -5.367188 14.113281 -4.140625 13.5625 -3.078125 C 13.019531 -2.023438 12.25 -1.203125 11.25 -0.609375 C 10.25 -0.0234375 9.054688 0.265625 7.671875 0.265625 Z M 7.6875 -2.671875 C 8.625 -2.671875 9.332031 -3.0625 9.8125 -3.84375 C 10.300781 -4.625 10.546875 -5.609375 10.546875 -6.796875 C 10.546875 -7.984375 10.300781 -8.96875 9.8125 -9.75 C 9.332031 -10.539062 8.625 -10.9375 7.6875 -10.9375 C 6.738281 -10.9375 6.019531 -10.539062 5.53125 -9.75 C 5.050781 -8.96875 4.8125 -7.984375 4.8125 -6.796875 C 4.8125 -5.609375 5.050781 -4.625 5.53125 -3.84375 C 6.019531 -3.0625 6.738281 -2.671875 7.6875 -2.671875 Z M 7.6875 -2.671875 "/></g></g><g style="fill:#000000;fill-opacity:1;"><g transform="translate(81.008918, 23.967981)"><path style="stroke:none" d="M 1.578125 0 L 1.578125 -18.1875 L 5.421875 -18.1875 L 5.421875 -10.171875 L 5.671875 -10.171875 L 12.21875 -18.1875 L 16.828125 -18.1875 L 10.078125 -10.046875 L 16.90625 0 L 12.296875 0 L 7.3125 -7.484375 L 5.421875 -5.171875 L 5.421875 0 Z M 1.578125 0 "/></g></g><g style="fill:#000000;fill-opacity:1;"><g transform="translate(96.731986, 23.967981)"><path style="stroke:none" d="M 5.40625 0.25 C 4.101562 0.25 3.019531 -0.0859375 2.15625 -0.765625 C 1.300781 -1.441406 0.875 -2.457031 0.875 -3.8125 C 0.875 -4.832031 1.113281 -5.628906 1.59375 -6.203125 C 2.070312 -6.785156 2.695312 -7.210938 3.46875 -7.484375 C 4.25 -7.753906 5.09375 -7.929688 6 -8.015625 C 7.175781 -8.128906 8.019531 -8.25 8.53125 -8.375 C 9.039062 -8.507812 9.296875 -8.796875 9.296875 -9.234375 L 9.296875 -9.296875 C 9.296875 -9.859375 9.117188 -10.289062 8.765625 -10.59375 C 8.421875 -10.90625 7.925781 -11.0625 7.28125 -11.0625 C 6.59375 -11.0625 6.046875 -10.910156 5.640625 -10.609375 C 5.242188 -10.316406 4.976562 -9.941406 4.84375 -9.484375 L 1.34375 -9.765625 C 1.601562 -11.015625 2.25 -12.003906 3.28125 -12.734375 C 4.320312 -13.460938 5.660156 -13.828125 7.296875 -13.828125 C 8.304688 -13.828125 9.25 -13.664062 10.125 -13.34375 C 11.007812 -13.019531 11.722656 -12.519531 12.265625 -11.84375 C 12.804688 -11.164062 13.078125 -10.285156 13.078125 -9.203125 L 13.078125 0 L 9.5 0 L 9.5 -1.890625 L 9.390625 -1.890625 C 9.054688 -1.253906 8.554688 -0.738281 7.890625 -0.34375 C 7.234375 0.0507812 6.40625 0.25 5.40625 0.25 Z M 6.484375 -2.359375 C 7.316406 -2.359375 8 -2.597656 8.53125 -3.078125 C 9.0625 -3.554688 9.328125 -4.15625 9.328125 -4.875 L 9.328125 -6.328125 C 9.179688 -6.222656 8.953125 -6.128906 8.640625 -6.046875 C 8.328125 -5.972656 7.992188 -5.910156 7.640625 -5.859375 C 7.285156 -5.804688 6.972656 -5.757812 6.703125 -5.71875 C 6.035156 -5.613281 5.5 -5.421875 5.09375 -5.140625 C 4.6875 -4.867188 4.484375 -4.46875 4.484375 -3.9375 C 4.484375 -3.414062 4.671875 -3.019531 5.046875 -2.75 C 5.421875 -2.488281 5.898438 -2.359375 6.484375 -2.359375 Z M 6.484375 -2.359375 "/></g></g><g style="fill:#000000;fill-opacity:1;"><g transform="translate(109.719302, 23.967981)"><path style="stroke:none" d="M 6.53125 0.21875 C 5.5 0.21875 4.566406 -0.046875 3.734375 -0.578125 C 2.898438 -1.117188 2.234375 -1.910156 1.734375 -2.953125 C 1.242188 -3.992188 1 -5.28125 1 -6.8125 C 1 -8.375 1.25 -9.671875 1.75 -10.703125 C 2.257812 -11.742188 2.929688 -12.523438 3.765625 -13.046875 C 4.609375 -13.566406 5.53125 -13.828125 6.53125 -13.828125 C 7.289062 -13.828125 7.925781 -13.695312 8.4375 -13.4375 C 8.957031 -13.175781 9.375 -12.851562 9.6875 -12.46875 C 10 -12.09375 10.238281 -11.722656 10.40625 -11.359375 L 10.53125 -11.359375 L 10.53125 -18.1875 L 14.296875 -18.1875 L 14.296875 0 L 10.578125 0 L 10.578125 -2.1875 L 10.40625 -2.1875 C 10.238281 -1.800781 9.988281 -1.421875 9.65625 -1.046875 C 9.332031 -0.679688 8.914062 -0.378906 8.40625 -0.140625 C 7.894531 0.0976562 7.269531 0.21875 6.53125 0.21875 Z M 7.734375 -2.796875 C 8.648438 -2.796875 9.359375 -3.160156 9.859375 -3.890625 C 10.359375 -4.628906 10.609375 -5.609375 10.609375 -6.828125 C 10.609375 -8.046875 10.359375 -9.015625 9.859375 -9.734375 C 9.359375 -10.453125 8.648438 -10.8125 7.734375 -10.8125 C 6.796875 -10.8125 6.082031 -10.441406 5.59375 -9.703125 C 5.113281 -8.960938 4.875 -8.003906 4.875 -6.828125 C 4.875 -5.628906 5.117188 -4.65625 5.609375 -3.90625 C 6.097656 -3.164062 6.804688 -2.796875 7.734375 -2.796875 Z M 7.734375 -2.796875 "/></g></g><g style="fill:#000000;fill-opacity:1;"><g transform="translate(124.08337, 23.967981)"><path style="stroke:none" d="M 5.40625 0.25 C 4.101562 0.25 3.019531 -0.0859375 2.15625 -0.765625 C 1.300781 -1.441406 0.875 -2.457031 0.875 -3.8125 C 0.875 -4.832031 1.113281 -5.628906 1.59375 -6.203125 C 2.070312 -6.785156 2.695312 -7.210938 3.46875 -7.484375 C 4.25 -7.753906 5.09375 -7.929688 6 -8.015625 C 7.175781 -8.128906 8.019531 -8.25 8.53125 -8.375 C 9.039062 -8.507812 9.296875 -8.796875 9.296875 -9.234375 L 9.296875 -9.296875 C 9.296875 -9.859375 9.117188 -10.289062 8.765625 -10.59375 C 8.421875 -10.90625 7.925781 -11.0625 7.28125 -11.0625 C 6.59375 -11.0625 6.046875 -10.910156 5.640625 -10.609375 C 5.242188 -10.316406 4.976562 -9.941406 4.84375 -9.484375 L 1.34375 -9.765625 C 1.601562 -11.015625 2.25 -12.003906 3.28125 -12.734375 C 4.320312 -13.460938 5.660156 -13.828125 7.296875 -13.828125 C 8.304688 -13.828125 9.25 -13.664062 10.125 -13.34375 C 11.007812 -13.019531 11.722656 -12.519531 12.265625 -11.84375 C 12.804688 -11.164062 13.078125 -10.285156 13.078125 -9.203125 L 13.078125 0 L 9.5 0 L 9.5 -1.890625 L 9.390625 -1.890625 C 9.054688 -1.253906 8.554688 -0.738281 7.890625 -0.34375 C 7.234375 0.0507812 6.40625 0.25 5.40625 0.25 Z M 6.484375 -2.359375 C 7.316406 -2.359375 8 -2.597656 8.53125 -3.078125 C 9.0625 -3.554688 9.328125 -4.15625 9.328125 -4.875 L 9.328125 -6.328125 C 9.179688 -6.222656 8.953125 -6.128906 8.640625 -6.046875 C 8.328125 -5.972656 7.992188 -5.910156 7.640625 -5.859375 C 7.285156 -5.804688 6.972656 -5.757812 6.703125 -5.71875 C 6.035156 -5.613281 5.5 -5.421875 5.09375 -5.140625 C 4.6875 -4.867188 4.484375 -4.46875 4.484375 -3.9375 C 4.484375 -3.414062 4.671875 -3.019531 5.046875 -2.75 C 5.421875 -2.488281 5.898438 -2.359375 6.484375 -2.359375 Z M 6.484375 -2.359375 "/></g></g><g style="fill:#000000;fill-opacity:1;"><g transform="translate(137.070687, 23.967981)"><path style="stroke:none" d="M 1.515625 0 L 1.515625 -13.640625 L 5.109375 -13.640625 L 5.109375 -11.234375 L 5.28125 -11.234375 C 5.5625 -12.046875 6.035156 -12.679688 6.703125 -13.140625 C 7.367188 -13.597656 8.160156 -13.828125 9.078125 -13.828125 C 10.015625 -13.828125 10.8125 -13.59375 11.46875 -13.125 C 12.125 -12.65625 12.5625 -12.023438 12.78125 -11.234375 L 12.921875 -11.234375 C 13.203125 -12.015625 13.707031 -12.640625 14.4375 -13.109375 C 15.164062 -13.585938 16.03125 -13.828125 17.03125 -13.828125 C 18.3125 -13.828125 19.347656 -13.421875 20.140625 -12.609375 C 20.941406 -11.796875 21.34375 -10.648438 21.34375 -9.171875 L 21.34375 0 L 17.5625 0 L 17.5625 -8.4375 C 17.5625 -9.1875 17.359375 -9.75 16.953125 -10.125 C 16.554688 -10.507812 16.054688 -10.703125 15.453125 -10.703125 C 14.765625 -10.703125 14.226562 -10.484375 13.84375 -10.046875 C 13.457031 -9.609375 13.265625 -9.035156 13.265625 -8.328125 L 13.265625 0 L 9.59375 0 L 9.59375 -8.515625 C 9.59375 -9.179688 9.398438 -9.710938 9.015625 -10.109375 C 8.640625 -10.503906 8.140625 -10.703125 7.515625 -10.703125 C 6.890625 -10.703125 6.363281 -10.472656 5.9375 -10.015625 C 5.507812 -9.554688 5.296875 -8.945312 5.296875 -8.1875 L 5.296875 0 Z M 1.515625 0 "/></g></g><g style="fill:#000000;fill-opacity:1;"><g transform="translate(158.354065, 23.967981)"><path style="stroke:none" d="M 1.578125 0 L 1.578125 -18.1875 L 8.859375 -18.1875 C 10.867188 -18.1875 12.378906 -17.75 13.390625 -16.875 C 14.398438 -16.007812 14.90625 -14.894531 14.90625 -13.53125 C 14.90625 -12.457031 14.59375 -11.585938 13.96875 -10.921875 C 13.351562 -10.265625 12.570312 -9.832031 11.625 -9.625 L 11.625 -9.4375 C 12.3125 -9.414062 12.957031 -9.222656 13.5625 -8.859375 C 14.175781 -8.492188 14.671875 -7.988281 15.046875 -7.34375 C 15.421875 -6.695312 15.609375 -5.925781 15.609375 -5.03125 C 15.609375 -4.0625 15.367188 -3.195312 14.890625 -2.4375 C 14.421875 -1.6875 13.71875 -1.09375 12.78125 -0.65625 C 11.851562 -0.21875 10.710938 0 9.359375 0 Z M 5.421875 -3.140625 L 8.5625 -3.140625 C 9.644531 -3.140625 10.425781 -3.347656 10.90625 -3.765625 C 11.394531 -4.179688 11.640625 -4.726562 11.640625 -5.40625 C 11.640625 -6.15625 11.367188 -6.769531 10.828125 -7.25 C 10.296875 -7.738281 9.570312 -7.984375 8.65625 -7.984375 L 5.421875 -7.984375 Z M 5.421875 -10.578125 L 8.28125 -10.578125 C 9.0625 -10.578125 9.710938 -10.78125 10.234375 -11.1875 C 10.765625 -11.601562 11.03125 -12.171875 11.03125 -12.890625 C 11.03125 -13.546875 10.796875 -14.070312 10.328125 -14.46875 C 9.859375 -14.875 9.195312 -15.078125 8.34375 -15.078125 L 5.421875 -15.078125 Z M 5.421875 -10.578125 "/></g></g><g style="fill:#000000;fill-opacity:1;"><g transform="translate(173.357656, 23.967981)"><path style="stroke:none" d="M 5.40625 0.25 C 4.101562 0.25 3.019531 -0.0859375 2.15625 -0.765625 C 1.300781 -1.441406 0.875 -2.457031 0.875 -3.8125 C 0.875 -4.832031 1.113281 -5.628906 1.59375 -6.203125 C 2.070312 -6.785156 2.695312 -7.210938 3.46875 -7.484375 C 4.25 -7.753906 5.09375 -7.929688 6 -8.015625 C 7.175781 -8.128906 8.019531 -8.25 8.53125 -8.375 C 9.039062 -8.507812 9.296875 -8.796875 9.296875 -9.234375 L 9.296875 -9.296875 C 9.296875 -9.859375 9.117188 -10.289062 8.765625 -10.59375 C 8.421875 -10.90625 7.925781 -11.0625 7.28125 -11.0625 C 6.59375 -11.0625 6.046875 -10.910156 5.640625 -10.609375 C 5.242188 -10.316406 4.976562 -9.941406 4.84375 -9.484375 L 1.34375 -9.765625 C 1.601562 -11.015625 2.25 -12.003906 3.28125 -12.734375 C 4.320312 -13.460938 5.660156 -13.828125 7.296875 -13.828125 C 8.304688 -13.828125 9.25 -13.664062 10.125 -13.34375 C 11.007812 -13.019531 11.722656 -12.519531 12.265625 -11.84375 C 12.804688 -11.164062 13.078125 -10.285156 13.078125 -9.203125 L 13.078125 0 L 9.5 0 L 9.5 -1.890625 L 9.390625 -1.890625 C 9.054688 -1.253906 8.554688 -0.738281 7.890625 -0.34375 C 7.234375 0.0507812 6.40625 0.25 5.40625 0.25 Z M 6.484375 -2.359375 C 7.316406 -2.359375 8 -2.597656 8.53125 -3.078125 C 9.0625 -3.554688 9.328125 -4.15625 9.328125 -4.875 L 9.328125 -6.328125 C 9.179688 -6.222656 8.953125 -6.128906 8.640625 -6.046875 C 8.328125 -5.972656 7.992188 -5.910156 7.640625 -5.859375 C 7.285156 -5.804688 6.972656 -5.757812 6.703125 -5.71875 C 6.035156 -5.613281 5.5 -5.421875 5.09375 -5.140625 C 4.6875 -4.867188 4.484375 -4.46875 4.484375 -3.9375 C 4.484375 -3.414062 4.671875 -3.019531 5.046875 -2.75 C 5.421875 -2.488281 5.898438 -2.359375 6.484375 -2.359375 Z M 6.484375 -2.359375 "/></g></g><g style="fill:#000000;fill-opacity:1;"><g transform="translate(186.344972, 23.967981)"><path style="stroke:none" d="M 6.53125 0.21875 C 5.5 0.21875 4.566406 -0.046875 3.734375 -0.578125 C 2.898438 -1.117188 2.234375 -1.910156 1.734375 -2.953125 C 1.242188 -3.992188 1 -5.28125 1 -6.8125 C 1 -8.375 1.25 -9.671875 1.75 -10.703125 C 2.257812 -11.742188 2.929688 -12.523438 3.765625 -13.046875 C 4.609375 -13.566406 5.53125 -13.828125 6.53125 -13.828125 C 7.289062 -13.828125 7.925781 -13.695312 8.4375 -13.4375 C 8.957031 -13.175781 9.375 -12.851562 9.6875 -12.46875 C 10 -12.09375 10.238281 -11.722656 10.40625 -11.359375 L 10.53125 -11.359375 L 10.53125 -18.1875 L 14.296875 -18.1875 L 14.296875 0 L 10.578125 0 L 10.578125 -2.1875 L 10.40625 -2.1875 C 10.238281 -1.800781 9.988281 -1.421875 9.65625 -1.046875 C 9.332031 -0.679688 8.914062 -0.378906 8.40625 -0.140625 C 7.894531 0.0976562 7.269531 0.21875 6.53125 0.21875 Z M 7.734375 -2.796875 C 8.648438 -2.796875 9.359375 -3.160156 9.859375 -3.890625 C 10.359375 -4.628906 10.609375 -5.609375 10.609375 -6.828125 C 10.609375 -8.046875 10.359375 -9.015625 9.859375 -9.734375 C 9.359375 -10.453125 8.648438 -10.8125 7.734375 -10.8125 C 6.796875 -10.8125 6.082031 -10.441406 5.59375 -9.703125 C 5.113281 -8.960938 4.875 -8.003906 4.875 -6.828125 C 4.875 -5.628906 5.117188 -4.65625 5.609375 -3.90625 C 6.097656 -3.164062 6.804688 -2.796875 7.734375 -2.796875 Z M 7.734375 -2.796875 "/></g></g><g style="fill:#000000;fill-opacity:1;"><g transform="translate(200.70904, 23.967981)"><path style="stroke:none" d="M 5.296875 -18.1875 L 5.296875 0 L 1.515625 0 L 1.515625 -18.1875 Z M 5.296875 -18.1875 "/></g></g><g style="fill:#000000;fill-opacity:1;"><g transform="translate(205.986516, 23.967981)"><path style="stroke:none" d="M 7.671875 0.265625 C 6.296875 0.265625 5.101562 -0.0234375 4.09375 -0.609375 C 3.09375 -1.203125 2.316406 -2.023438 1.765625 -3.078125 C 1.222656 -4.140625 0.953125 -5.367188 0.953125 -6.765625 C 0.953125 -8.179688 1.222656 -9.414062 1.765625 -10.46875 C 2.316406 -11.53125 3.09375 -12.351562 4.09375 -12.9375 C 5.101562 -13.53125 6.296875 -13.828125 7.671875 -13.828125 C 9.054688 -13.828125 10.25 -13.53125 11.25 -12.9375 C 12.25 -12.351562 13.019531 -11.53125 13.5625 -10.46875 C 14.113281 -9.414062 14.390625 -8.179688 14.390625 -6.765625 C 14.390625 -5.367188 14.113281 -4.140625 13.5625 -3.078125 C 13.019531 -2.023438 12.25 -1.203125 11.25 -0.609375 C 10.25 -0.0234375 9.054688 0.265625 7.671875 0.265625 Z M 7.6875 -2.671875 C 8.625 -2.671875 9.332031 -3.0625 9.8125 -3.84375 C 10.300781 -4.625 10.546875 -5.609375 10.546875 -6.796875 C 10.546875 -7.984375 10.300781 -8.96875 9.8125 -9.75 C 9.332031 -10.539062 8.625 -10.9375 7.6875 -10.9375 C 6.738281 -10.9375 6.019531 -10.539062 5.53125 -9.75 C 5.050781 -8.96875 4.8125 -7.984375 4.8125 -6.796875 C 4.8125 -5.609375 5.050781 -4.625 5.53125 -3.84375 C 6.019531 -3.0625 6.738281 -2.671875 7.6875 -2.671875 Z M 7.6875 -2.671875 "/></g></g><g style="fill:#000000;fill-opacity:1;"><g transform="translate(219.808769, 23.967981)"><path style="stroke:none" d="M 8.859375 -18.1875 L 12.671875 -18.1875 L 12.671875 -5.5 C 12.671875 -4.332031 12.40625 -3.316406 11.875 -2.453125 C 11.351562 -1.585938 10.628906 -0.921875 9.703125 -0.453125 C 8.773438 0.015625 7.691406 0.25 6.453125 0.25 C 5.359375 0.25 4.363281 0.0546875 3.46875 -0.328125 C 2.582031 -0.722656 1.878906 -1.316406 1.359375 -2.109375 C 0.835938 -2.898438 0.582031 -3.898438 0.59375 -5.109375 L 4.421875 -5.109375 C 4.429688 -4.390625 4.640625 -3.828125 5.046875 -3.421875 C 5.453125 -3.023438 5.988281 -2.828125 6.65625 -2.828125 C 8.113281 -2.828125 8.847656 -3.71875 8.859375 -5.5 Z M 8.859375 -18.1875 "/></g></g><g style="fill:#000000;fill-opacity:1;"><g transform="translate(232.538492, 23.967981)"><path style="stroke:none" d="M 7.734375 0.265625 C 6.328125 0.265625 5.117188 -0.0195312 4.109375 -0.59375 C 3.097656 -1.164062 2.316406 -1.976562 1.765625 -3.03125 C 1.222656 -4.082031 0.953125 -5.328125 0.953125 -6.765625 C 0.953125 -8.160156 1.222656 -9.390625 1.765625 -10.453125 C 2.316406 -11.515625 3.085938 -12.34375 4.078125 -12.9375 C 5.066406 -13.53125 6.234375 -13.828125 7.578125 -13.828125 C 8.773438 -13.828125 9.859375 -13.570312 10.828125 -13.0625 C 11.796875 -12.550781 12.5625 -11.78125 13.125 -10.75 C 13.695312 -9.726562 13.984375 -8.441406 13.984375 -6.890625 L 13.984375 -5.859375 L 4.703125 -5.859375 L 4.703125 -5.84375 C 4.703125 -4.820312 4.976562 -4.019531 5.53125 -3.4375 C 6.09375 -2.851562 6.847656 -2.5625 7.796875 -2.5625 C 8.421875 -2.5625 8.960938 -2.691406 9.421875 -2.953125 C 9.890625 -3.222656 10.21875 -3.617188 10.40625 -4.140625 L 13.90625 -3.90625 C 13.644531 -2.632812 12.972656 -1.617188 11.890625 -0.859375 C 10.804688 -0.109375 9.421875 0.265625 7.734375 0.265625 Z M 4.703125 -8.203125 L 10.421875 -8.203125 C 10.421875 -9.015625 10.160156 -9.679688 9.640625 -10.203125 C 9.128906 -10.734375 8.460938 -11 7.640625 -11 C 6.796875 -11 6.101562 -10.722656 5.5625 -10.171875 C 5.03125 -9.628906 4.742188 -8.972656 4.703125 -8.203125 Z M 4.703125 -8.203125 "/></g></g><g style="fill:#000000;fill-opacity:1;"><g transform="translate(245.961041, 23.967981)"><path style="stroke:none" d="M 7.734375 0.265625 C 6.328125 0.265625 5.117188 -0.0195312 4.109375 -0.59375 C 3.097656 -1.164062 2.316406 -1.976562 1.765625 -3.03125 C 1.222656 -4.082031 0.953125 -5.328125 0.953125 -6.765625 C 0.953125 -8.160156 1.222656 -9.390625 1.765625 -10.453125 C 2.316406 -11.515625 3.085938 -12.34375 4.078125 -12.9375 C 5.066406 -13.53125 6.234375 -13.828125 7.578125 -13.828125 C 8.773438 -13.828125 9.859375 -13.570312 10.828125 -13.0625 C 11.796875 -12.550781 12.5625 -11.78125 13.125 -10.75 C 13.695312 -9.726562 13.984375 -8.441406 13.984375 -6.890625 L 13.984375 -5.859375 L 4.703125 -5.859375 L 4.703125 -5.84375 C 4.703125 -4.820312 4.976562 -4.019531 5.53125 -3.4375 C 6.09375 -2.851562 6.847656 -2.5625 7.796875 -2.5625 C 8.421875 -2.5625 8.960938 -2.691406 9.421875 -2.953125 C 9.890625 -3.222656 10.21875 -3.617188 10.40625 -4.140625 L 13.90625 -3.90625 C 13.644531 -2.632812 12.972656 -1.617188 11.890625 -0.859375 C 10.804688 -0.109375 9.421875 0.265625 7.734375 0.265625 Z M 4.703125 -8.203125 L 10.421875 -8.203125 C 10.421875 -9.015625 10.160156 -9.679688 9.640625 -10.203125 C 9.128906 -10.734375 8.460938 -11 7.640625 -11 C 6.796875 -11 6.101562 -10.722656 5.5625 -10.171875 C 5.03125 -9.628906 4.742188 -8.972656 4.703125 -8.203125 Z M 4.703125 -8.203125 "/></g></g><g style="fill:#000000;fill-opacity:1;"><g transform="translate(259.170379, 23.967981)"><path style="stroke:none" d="M 14.234375 -13.640625 L 9.453125 0 L 5.203125 0 L 0.421875 -13.640625 L 4.421875 -13.640625 L 7.25 -3.875 L 7.40625 -3.875 L 10.21875 -13.640625 Z M 14.234375 -13.640625 "/></g></g><g style="fill:#000000;fill-opacity:1;"><g transform="translate(272.086596, 23.967981)"><path style="stroke:none" d="M 5.40625 0.25 C 4.101562 0.25 3.019531 -0.0859375 2.15625 -0.765625 C 1.300781 -1.441406 0.875 -2.457031 0.875 -3.8125 C 0.875 -4.832031 1.113281 -5.628906 1.59375 -6.203125 C 2.070312 -6.785156 2.695312 -7.210938 3.46875 -7.484375 C 4.25 -7.753906 5.09375 -7.929688 6 -8.015625 C 7.175781 -8.128906 8.019531 -8.25 8.53125 -8.375 C 9.039062 -8.507812 9.296875 -8.796875 9.296875 -9.234375 L 9.296875 -9.296875 C 9.296875 -9.859375 9.117188 -10.289062 8.765625 -10.59375 C 8.421875 -10.90625 7.925781 -11.0625 7.28125 -11.0625 C 6.59375 -11.0625 6.046875 -10.910156 5.640625 -10.609375 C 5.242188 -10.316406 4.976562 -9.941406 4.84375 -9.484375 L 1.34375 -9.765625 C 1.601562 -11.015625 2.25 -12.003906 3.28125 -12.734375 C 4.320312 -13.460938 5.660156 -13.828125 7.296875 -13.828125 C 8.304688 -13.828125 9.25 -13.664062 10.125 -13.34375 C 11.007812 -13.019531 11.722656 -12.519531 12.265625 -11.84375 C 12.804688 -11.164062 13.078125 -10.285156 13.078125 -9.203125 L 13.078125 0 L 9.5 0 L 9.5 -1.890625 L 9.390625 -1.890625 C 9.054688 -1.253906 8.554688 -0.738281 7.890625 -0.34375 C 7.234375 0.0507812 6.40625 0.25 5.40625 0.25 Z M 6.484375 -2.359375 C 7.316406 -2.359375 8 -2.597656 8.53125 -3.078125 C 9.0625 -3.554688 9.328125 -4.15625 9.328125 -4.875 L 9.328125 -6.328125 C 9.179688 -6.222656 8.953125 -6.128906 8.640625 -6.046875 C 8.328125 -5.972656 7.992188 -5.910156 7.640625 -5.859375 C 7.285156 -5.804688 6.972656 -5.757812 6.703125 -5.71875 C 6.035156 -5.613281 5.5 -5.421875 5.09375 -5.140625 C 4.6875 -4.867188 4.484375 -4.46875 4.484375 -3.9375 C 4.484375 -3.414062 4.671875 -3.019531 5.046875 -2.75 C 5.421875 -2.488281 5.898438 -2.359375 6.484375 -2.359375 Z M 6.484375 -2.359375 "/></g></g><g style="fill:#000000;fill-opacity:1;"><g transform="translate(285.073912, 23.967981)"><path style="stroke:none" d="M 5.296875 -7.890625 L 5.296875 0 L 1.515625 0 L 1.515625 -13.640625 L 5.109375 -13.640625 L 5.109375 -11.234375 L 5.28125 -11.234375 C 5.582031 -12.023438 6.085938 -12.65625 6.796875 -13.125 C 7.503906 -13.59375 8.363281 -13.828125 9.375 -13.828125 C 10.800781 -13.828125 11.941406 -13.367188 12.796875 -12.453125 C 13.660156 -11.535156 14.09375 -10.28125 14.09375 -8.6875 L 14.09375 0 L 10.3125 0 L 10.3125 -8.015625 C 10.3125 -8.847656 10.09375 -9.5 9.65625 -9.96875 C 9.226562 -10.4375 8.632812 -10.671875 7.875 -10.671875 C 7.113281 -10.671875 6.492188 -10.425781 6.015625 -9.9375 C 5.535156 -9.457031 5.296875 -8.773438 5.296875 -7.890625 Z M 5.296875 -7.890625 "/></g></g></g></g></g><path style=" stroke:none;fill-rule:nonzero;fill:#000000;fill-opacity:1;" d="M 89.015625 0.0078125 C 79.28125 0.0078125 71.386719 6.914062 71.386719 16.652344 C 71.386719 6.914062 63.492188 0.0078125 53.757812 0.0078125 C 44.019531 0.0078125 36.125 7.902344 36.125 17.640625 C 36.125 40.089844 71.386719 58.355469 71.386719 58.355469 C 71.386719 58.355469 106.648438 40.089844 106.648438 17.640625 C 106.648438 7.902344 98.753906 0.0078125 89.015625 0.0078125 Z M 89.015625 0.0078125 "/><g clip-rule="nonzero" clip-path="url(#1f319d513b)"><path style=" stroke:none;fill-rule:nonzero;fill:#000000;fill-opacity:1;" d="M 23.066406 49.632812 L 27.574219 42.292969 C 26.523438 41.632812 24.519531 40.789062 22.753906 42.496094 C 20.96875 44.222656 22.195312 47.730469 23.066406 49.632812 Z M 17.703125 23.375 L 18.4375 23.640625 C 18.53125 23.671875 19.25 23.945312 20.089844 24.582031 C 19.78125 17.785156 14.964844 16.601562 14.546875 17.0625 C 14.1875 17.464844 12.488281 30.730469 11.875 35.609375 C 13.851562 30.808594 15.945312 26.070312 17.277344 24.027344 Z M 119.390625 43.480469 C 117.679688 41.71875 115.648438 42.492188 114.582031 43.121094 L 118.84375 50.605469 C 119.78125 48.726562 121.121094 45.265625 119.390625 43.480469 Z M 125.0625 24.535156 L 125.464844 25.203125 C 126.734375 27.285156 128.667969 32.089844 130.488281 36.953125 C 130.035156 32.054688 128.765625 18.742188 128.421875 18.328125 C 128.019531 17.855469 123.164062 18.878906 122.636719 25.664062 C 123.496094 25.054688 124.222656 24.804688 124.316406 24.773438 Z M 124.621094 25.714844 C 124.621094 25.714844 118.902344 27.566406 121.273438 34.601562 C 121.695312 35.859375 122.023438 36.921875 122.269531 37.84375 C 122.273438 37.851562 123.777344 42.460938 124.71875 45.386719 C 125.660156 48.316406 125.757812 50.609375 125.234375 52.085938 C 124.710938 53.5625 121.125 60.242188 121.125 60.242188 C 121.125 60.242188 123.234375 54.925781 124.285156 51.972656 C 124.875 50.304688 123.773438 46.527344 122.699219 43.558594 C 122.5625 44.074219 122.382812 44.566406 122.191406 45.125 C 121.625 46.792969 120.175781 49.917969 119.378906 51.59375 C 121.242188 54.328125 121.167969 56.925781 121.167969 56.925781 L 120.785156 68.75 C 120.785156 68.75 120.285156 59.503906 120.183594 57.105469 C 120.085938 54.710938 118.292969 51.761719 118.292969 51.761719 L 113.839844 43.632812 C 113.839844 43.632812 111.152344 38.21875 108.648438 35.9375 C 108.648438 35.9375 104.585938 37.164062 106.507812 42.128906 C 108.425781 47.09375 108.425781 47.09375 108.425781 47.09375 L 112.269531 57.328125 C 112.269531 57.328125 112.664062 59.855469 112.5 61.75 C 112.339844 63.648438 112.296875 65.636719 111.011719 66.71875 C 109.726562 67.800781 107.734375 70.039062 107.34375 71.046875 C 106.953125 72.050781 92.828125 75.675781 92.828125 75.675781 C 92.828125 75.675781 104.601562 71.871094 105.820312 70.847656 C 107.035156 69.828125 107.925781 67.894531 110.128906 66.144531 C 111.058594 65.402344 111.667969 61.601562 111.460938 59.730469 C 111.351562 60.023438 111.058594 60.382812 110.640625 60.730469 C 110.605469 60.761719 110.570312 60.789062 110.53125 60.816406 C 109.480469 61.640625 107.753906 62.34375 106.160156 61.761719 C 103.847656 60.910156 101.21875 61.886719 101.21875 61.886719 C 104.71875 59.960938 107.164062 61.261719 107.164062 61.261719 C 107.164062 61.261719 110.492188 58.878906 111.269531 57.804688 L 107.636719 47.730469 C 106.597656 48.601562 104.726562 50.28125 103.21875 52.253906 C 101.007812 55.144531 97.761719 56.652344 95.375 58.339844 C 92.984375 60.027344 82.269531 67.304688 79.378906 72.382812 C 76.492188 77.457031 75.714844 80.753906 75.304688 85.554688 C 74.890625 90.355469 75.460938 102.457031 76.367188 110.664062 C 76.628906 113.023438 76.71875 116.4375 76.71875 120.097656 L 98.757812 120.097656 C 98.195312 118.0625 96.050781 109.984375 95.78125 104.484375 C 95.472656 98.144531 95.4375 94.089844 103.710938 89.171875 C 111.980469 84.253906 120.5 80.378906 123.71875 74.214844 C 126.933594 68.054688 133.175781 56.988281 133.839844 55.726562 C 134.5 54.457031 135.082031 52.632812 134.320312 50.605469 C 133.902344 49.496094 127.464844 30.394531 124.621094 25.714844 Z M 139.269531 23.136719 C 138.402344 22.78125 134.9375 23.910156 132.578125 28.515625 C 131.914062 30.933594 131.066406 34.855469 130.574219 37.183594 C 131.65625 40.074219 132.691406 42.96875 133.515625 45.308594 C 134.402344 42.152344 138.597656 29.191406 139.214844 27.398438 C 140.042969 25.003906 140.140625 23.492188 139.269531 23.136719 Z M 61.804688 72.683594 C 59.082031 67.511719 48.605469 59.890625 46.277344 58.125 C 43.945312 56.363281 40.746094 54.75 38.632812 51.789062 C 37.191406 49.769531 35.375 48.03125 34.363281 47.128906 L 30.40625 57.078125 C 31.148438 58.175781 34.398438 60.664062 34.398438 60.664062 C 34.398438 60.664062 36.882812 59.445312 40.316406 61.484375 C 40.316406 61.484375 37.722656 60.421875 35.382812 61.195312 C 33.773438 61.730469 32.066406 60.972656 31.046875 60.113281 C 31.007812 60.082031 30.972656 60.050781 30.941406 60.019531 C 30.53125 59.660156 30.253906 59.289062 30.152344 58.996094 C 29.882812 60.859375 30.367188 64.675781 31.277344 65.449219 C 33.421875 67.273438 34.246094 69.230469 35.429688 70.292969 C 36.609375 71.351562 48.257812 75.539062 48.257812 75.539062 C 48.257812 75.539062 34.257812 71.457031 33.898438 70.4375 C 33.542969 69.417969 31.625 67.117188 30.375 65.996094 C 29.125 64.871094 29.148438 62.878906 29.046875 60.980469 C 28.945312 59.082031 29.421875 56.566406 29.421875 56.566406 L 33.59375 46.464844 C 33.59375 46.464844 33.59375 46.464844 35.675781 41.5625 C 37.757812 36.664062 33.734375 35.304688 33.734375 35.304688 C 31.160156 37.503906 28.296875 42.832031 28.296875 42.832031 L 23.582031 50.808594 C 23.582031 50.808594 21.695312 53.699219 21.519531 56.089844 C 21.339844 58.484375 20.539062 67.707031 20.539062 67.707031 L 20.539062 55.875 C 20.539062 55.875 20.554688 53.277344 22.5 50.605469 C 21.761719 48.90625 20.414062 45.734375 19.902344 44.046875 C 19.730469 43.484375 19.5625 42.988281 19.445312 42.464844 C 18.277344 45.402344 17.050781 49.136719 17.585938 50.824219 C 18.539062 53.8125 20.476562 59.191406 20.476562 59.191406 C 20.476562 59.191406 17.109375 52.402344 16.632812 50.90625 C 16.160156 49.414062 16.332031 47.125 17.367188 44.226562 C 18.402344 41.335938 20.054688 36.777344 20.058594 36.769531 C 20.335938 35.855469 20.695312 34.800781 21.160156 33.5625 C 23.761719 26.609375 18.101562 24.566406 18.101562 24.566406 C 15.109375 29.152344 8.054688 48.039062 7.601562 49.132812 C 6.773438 51.132812 7.296875 52.976562 7.917969 54.265625 C 8.539062 55.550781 14.417969 66.8125 17.429688 73.078125 C 20.445312 79.339844 28.835938 83.488281 36.941406 88.671875 C 45.046875 93.859375 44.882812 97.910156 44.367188 104.234375 C 43.886719 110.144531 41.136719 118.964844 40.773438 120.097656 L 62.925781 120.097656 C 63.042969 116.578125 63.246094 113.316406 63.570312 111.042969 C 64.742188 102.871094 65.707031 90.792969 65.449219 85.980469 C 65.195312 81.171875 64.527344 77.851562 61.804688 72.683594 Z M 11.78125 35.839844 C 11.363281 33.496094 10.644531 29.550781 10.0625 27.109375 C 7.851562 22.429688 4.425781 21.1875 3.546875 21.515625 C 2.667969 21.847656 2.714844 23.355469 3.464844 25.777344 C 4.023438 27.589844 7.792969 40.679688 8.578125 43.863281 C 9.476562 41.554688 10.605469 38.695312 11.78125 35.839844 Z M 11.78125 35.839844 "/></g><g clip-rule="nonzero" clip-path="url(#09484fcb78)"><path style=" stroke:none;fill-rule:nonzero;fill:#ffffff;fill-opacity:1;" d="M 46.488281 42.128906 C 46.855469 42.535156 47.253906 42.90625 47.683594 43.238281 C 48.058594 43.027344 48.390625 42.757812 48.675781 42.4375 C 49.304688 41.910156 49.714844 41.25 49.914062 40.457031 C 50.007812 39.847656 49.992188 39.242188 49.867188 38.636719 C 49.65625 37.847656 48.953125 37.363281 48.496094 36.738281 C 48.433594 36.25 48.414062 35.757812 48.433594 35.265625 C 48.398438 32.148438 48.410156 29.03125 48.402344 25.914062 C 48.378906 25.640625 48.449219 25.394531 48.617188 25.179688 C 48.652344 25.152344 48.691406 25.132812 48.734375 25.117188 C 48.773438 25.101562 48.820312 25.089844 48.863281 25.085938 C 48.90625 25.082031 48.949219 25.082031 48.996094 25.089844 C 49.039062 25.097656 49.082031 25.109375 49.121094 25.128906 C 49.164062 25.144531 49.199219 25.167969 49.238281 25.195312 C 49.273438 25.222656 49.304688 25.253906 49.332031 25.289062 C 49.355469 25.324219 49.378906 25.363281 49.394531 25.40625 C 49.414062 25.445312 49.425781 25.488281 49.429688 25.535156 C 49.457031 27.285156 49.4375 29.039062 49.441406 30.792969 C 49.355469 31.824219 49.445312 32.839844 49.703125 33.839844 C 49.851562 34.324219 50.078125 34.769531 50.378906 35.179688 C 50.675781 35.589844 51.035156 35.9375 51.449219 36.226562 C 51.445312 35.652344 51.3125 35.089844 51.265625 34.519531 C 51.074219 33.109375 51.246094 31.746094 51.785156 30.429688 C 51.929688 30.160156 52.089844 29.820312 52.425781 29.765625 C 52.464844 29.761719 52.503906 29.761719 52.542969 29.765625 C 52.585938 29.773438 52.621094 29.78125 52.660156 29.796875 C 52.695312 29.8125 52.730469 29.828125 52.765625 29.855469 C 52.796875 29.875 52.824219 29.902344 52.851562 29.933594 C 52.878906 29.964844 52.898438 30 52.917969 30.035156 C 52.933594 30.070312 52.949219 30.109375 52.953125 30.148438 C 52.964844 30.1875 52.96875 30.226562 52.964844 30.269531 C 52.964844 30.308594 52.957031 30.347656 52.945312 30.386719 C 52.828125 30.828125 52.617188 31.242188 52.515625 31.6875 C 52.363281 32.34375 52.316406 33.007812 52.378906 33.679688 C 52.539062 35.894531 52.605469 38.117188 52.617188 40.339844 C 52.632812 40.90625 52.589844 41.480469 52.660156 42.046875 C 52.671875 42.136719 52.714844 42.210938 52.785156 42.269531 C 52.855469 42.328125 52.9375 42.351562 53.027344 42.347656 C 53.523438 42.347656 54.015625 42.359375 54.507812 42.335938 C 54.730469 42.226562 54.757812 41.957031 54.761719 41.742188 C 54.75 40.835938 54.835938 39.941406 55.023438 39.058594 C 55.136719 38.328125 55.777344 37.882812 56.300781 37.441406 C 56.988281 36.878906 57.617188 36.257812 58.195312 35.582031 C 58.449219 35.273438 58.667969 34.941406 58.851562 34.585938 C 59.039062 34.230469 59.183594 33.859375 59.289062 33.472656 C 59.394531 33.085938 59.457031 32.695312 59.484375 32.292969 C 59.503906 31.890625 59.488281 31.496094 59.429688 31.097656 C 59.308594 30.617188 59.113281 30.164062 58.847656 29.742188 C 58.769531 29.621094 58.765625 29.496094 58.839844 29.371094 C 58.890625 29.277344 58.964844 29.199219 59.058594 29.144531 C 59.152344 29.089844 59.253906 29.0625 59.363281 29.0625 C 59.472656 29.0625 59.574219 29.089844 59.667969 29.140625 C 59.761719 29.195312 59.835938 29.273438 59.890625 29.367188 C 60.097656 29.742188 60.261719 30.132812 60.378906 30.542969 C 60.5 30.953125 60.574219 31.375 60.597656 31.800781 C 60.625 32.230469 60.605469 32.652344 60.539062 33.078125 C 60.46875 33.5 60.359375 33.910156 60.199219 34.308594 C 59.746094 35.421875 59.105469 36.410156 58.277344 37.273438 C 58.578125 37.351562 58.886719 37.40625 59.195312 37.441406 C 59.21875 37.714844 59.273438 37.980469 59.355469 38.238281 C 59.417969 38.339844 59.496094 38.414062 59.601562 38.46875 C 59.703125 38.519531 59.808594 38.542969 59.925781 38.535156 C 60.039062 38.523438 60.144531 38.484375 60.238281 38.417969 C 60.328125 38.347656 60.394531 38.257812 60.4375 38.152344 C 60.464844 37.734375 60.441406 37.320312 60.378906 36.910156 C 60.785156 36.753906 61.207031 36.640625 61.621094 36.5 C 61.59375 36.914062 61.652344 37.320312 61.785156 37.714844 C 61.851562 37.816406 61.9375 37.894531 62.046875 37.949219 C 62.160156 38 62.273438 38.015625 62.394531 38 C 62.515625 37.984375 62.621094 37.9375 62.714844 37.859375 C 62.808594 37.78125 62.875 37.683594 62.910156 37.566406 C 62.941406 37.109375 62.875 36.652344 62.882812 36.195312 C 65.070312 36.214844 67.261719 36.167969 69.449219 36.230469 C 69.382812 35.703125 69.28125 35.183594 69.199219 34.660156 C 68.910156 33.605469 68.890625 32.542969 69.136719 31.480469 C 69.257812 31.140625 69.410156 30.730469 69.792969 30.621094 C 69.878906 30.601562 69.960938 30.601562 70.042969 30.621094 C 70.128906 30.644531 70.203125 30.683594 70.265625 30.742188 C 70.328125 30.796875 70.375 30.867188 70.40625 30.949219 C 70.4375 31.027344 70.445312 31.109375 70.4375 31.195312 C 70.359375 31.574219 70.058594 31.882812 70.078125 32.28125 C 70.148438 33.347656 70.277344 34.410156 70.457031 35.464844 C 70.714844 37.941406 70.832031 40.433594 70.894531 42.921875 C 70.871094 43.175781 70.925781 43.414062 71.050781 43.632812 C 71.515625 43.710938 71.988281 43.675781 72.457031 43.734375 C 72.738281 43.785156 72.917969 43.484375 72.894531 43.234375 C 72.96875 41.53125 73.136719 39.839844 73.398438 38.15625 C 73.585938 36.992188 73.695312 35.816406 73.984375 34.671875 C 74.253906 33.855469 74.394531 33.023438 74.414062 32.164062 C 74.410156 31.742188 74.035156 31.371094 74.191406 30.9375 C 74.210938 30.898438 74.234375 30.855469 74.261719 30.820312 C 74.289062 30.785156 74.320312 30.75 74.359375 30.722656 C 74.394531 30.695312 74.433594 30.671875 74.476562 30.65625 C 74.519531 30.636719 74.5625 30.625 74.609375 30.621094 C 74.65625 30.613281 74.699219 30.613281 74.746094 30.621094 C 74.792969 30.625 74.835938 30.636719 74.878906 30.652344 C 74.921875 30.671875 74.960938 30.695312 75 30.722656 C 75.035156 30.75 75.066406 30.78125 75.09375 30.820312 C 75.375 31.230469 75.515625 31.683594 75.511719 32.179688 C 75.464844 33.535156 75.214844 34.847656 74.757812 36.121094 C 75.546875 35.878906 76.210938 35.441406 76.746094 34.8125 C 77.398438 34.117188 77.839844 33.304688 78.070312 32.375 C 78.425781 31.105469 78.609375 29.789062 78.949219 28.511719 C 79.136719 27.476562 79.507812 26.507812 80.066406 25.613281 C 80.304688 25.261719 80.601562 24.972656 80.96875 24.753906 C 81.332031 24.535156 81.726562 24.402344 82.148438 24.355469 C 83.167969 24.253906 84.117188 24.761719 85.132812 24.78125 C 85.53125 24.824219 85.917969 24.777344 86.292969 24.632812 C 86.671875 24.492188 86.996094 24.273438 87.265625 23.976562 C 87.453125 23.730469 87.574219 23.460938 87.628906 23.15625 C 87.679688 22.851562 87.660156 22.554688 87.5625 22.261719 C 87.335938 21.566406 86.730469 21.089844 86.453125 20.421875 C 86.199219 19.589844 86.105469 18.742188 86.175781 17.878906 C 86.574219 17.984375 86.972656 18 87.375 17.921875 C 87.777344 17.84375 88.140625 17.683594 88.46875 17.4375 C 88.5625 17.375 88.640625 17.296875 88.703125 17.207031 C 88.765625 17.117188 88.8125 17.015625 88.839844 16.910156 C 88.871094 16.800781 88.878906 16.691406 88.867188 16.582031 C 88.859375 16.472656 88.828125 16.363281 88.78125 16.265625 C 88.589844 16.035156 88.355469 15.863281 88.078125 15.753906 C 87.800781 15.640625 87.515625 15.597656 87.21875 15.628906 C 86.765625 15.699219 86.328125 15.816406 85.898438 15.980469 C 86.070312 15.683594 86.324219 15.441406 86.464844 15.128906 C 86.71875 14.574219 86.808594 13.996094 86.738281 13.386719 C 86.730469 13.226562 86.691406 13.078125 86.617188 12.9375 C 86.546875 12.796875 86.445312 12.675781 86.320312 12.578125 C 86.261719 12.546875 86.203125 12.527344 86.136719 12.527344 C 86.070312 12.523438 86.011719 12.539062 85.953125 12.566406 C 85.894531 12.597656 85.847656 12.640625 85.8125 12.695312 C 85.777344 12.75 85.753906 12.8125 85.75 12.875 C 85.753906 13.148438 85.707031 13.410156 85.609375 13.664062 C 85.511719 13.917969 85.371094 14.140625 85.1875 14.339844 C 84.945312 14.636719 84.648438 14.863281 84.296875 15.023438 C 83.949219 15.183594 83.585938 15.257812 83.203125 15.25 C 82.261719 15.121094 81.320312 15.132812 80.382812 15.28125 C 79.976562 15.125 79.605469 14.902344 79.277344 14.613281 C 78.945312 14.324219 78.675781 13.984375 78.46875 13.597656 C 78.308594 13.273438 78.511719 12.8125 78.183594 12.570312 C 77.855469 12.410156 77.550781 12.734375 77.464844 13.03125 C 77.390625 13.277344 77.347656 13.53125 77.335938 13.792969 C 77.328125 14.050781 77.351562 14.304688 77.410156 14.558594 C 77.472656 14.808594 77.5625 15.050781 77.683594 15.277344 C 77.808594 15.503906 77.957031 15.710938 78.136719 15.898438 C 77.964844 15.921875 77.796875 15.894531 77.636719 15.828125 C 77.351562 15.710938 77.054688 15.648438 76.746094 15.644531 C 76.4375 15.640625 76.136719 15.695312 75.851562 15.8125 C 75.6875 15.875 75.546875 15.972656 75.429688 16.105469 C 75.316406 16.238281 75.238281 16.390625 75.195312 16.5625 C 75.191406 16.75 75.230469 16.925781 75.3125 17.089844 C 75.394531 17.253906 75.511719 17.390625 75.667969 17.496094 C 75.957031 17.707031 76.28125 17.84375 76.632812 17.910156 C 76.988281 17.972656 77.339844 17.957031 77.6875 17.863281 C 76.707031 18.875 75.550781 19.597656 74.214844 20.039062 C 72.390625 20.660156 70.511719 20.996094 68.582031 21.050781 C 66.019531 21.179688 63.476562 20.992188 60.957031 20.488281 C 59.65625 20.210938 58.375 19.839844 57.089844 19.5 C 56.015625 19.203125 54.921875 19.097656 53.8125 19.1875 C 52.359375 19.328125 51.015625 19.785156 49.777344 20.5625 C 49.105469 21 48.535156 21.542969 48.0625 22.191406 C 47.589844 22.839844 47.246094 23.550781 47.035156 24.324219 C 46.828125 25.410156 46.757812 26.503906 46.824219 27.605469 C 46.839844 30.558594 46.824219 33.511719 46.84375 36.464844 C 46.832031 36.613281 46.871094 36.796875 46.75 36.917969 C 46.378906 37.289062 46.050781 37.699219 45.773438 38.144531 C 45.570312 38.585938 45.488281 39.050781 45.527344 39.539062 C 45.5 40.015625 45.554688 40.484375 45.691406 40.945312 C 45.878906 41.394531 46.144531 41.789062 46.488281 42.128906 Z M 46.488281 42.128906 "/></g><path style=" stroke:none;fill-rule:nonzero;fill:#ffffff;fill-opacity:1;" d="M 87.113281 35.078125 C 86.042969 35.78125 84.886719 36.28125 83.644531 36.582031 C 82.839844 36.773438 82.167969 37.191406 81.636719 37.828125 C 81.5 38.046875 81.433594 38.285156 81.4375 38.542969 C 81.4375 38.796875 81.511719 39.035156 81.652344 39.25 C 82.296875 40.125 83.109375 40.796875 84.085938 41.273438 C 84.125 41.796875 84.242188 42.304688 84.433594 42.792969 C 85.859375 43.042969 87.265625 43.375 88.652344 43.796875 C 88.738281 43.1875 88.941406 42.621094 89.253906 42.09375 C 89.875 41.496094 90.558594 40.988281 91.308594 40.570312 C 91.695312 40.28125 92.019531 39.9375 92.273438 39.527344 C 92.53125 39.117188 92.703125 38.671875 92.789062 38.199219 C 92.917969 36.851562 92.734375 35.546875 92.242188 34.289062 C 92.15625 34.078125 92.101562 33.859375 92.074219 33.636719 C 92.046875 33.410156 92.046875 33.183594 92.078125 32.957031 C 92.109375 32.734375 92.167969 32.515625 92.253906 32.304688 C 92.34375 32.09375 92.457031 31.898438 92.59375 31.71875 C 92.828125 31.460938 93.105469 31.273438 93.433594 31.15625 C 93.757812 31.042969 94.09375 31.007812 94.4375 31.058594 C 94.421875 30.925781 94.394531 30.792969 94.355469 30.664062 C 94.316406 30.53125 94.265625 30.40625 94.207031 30.285156 C 94.144531 30.164062 94.070312 30.046875 93.988281 29.941406 C 93.90625 29.832031 93.816406 29.734375 93.71875 29.640625 C 93.617188 29.550781 93.511719 29.46875 93.394531 29.394531 C 93.28125 29.324219 93.160156 29.261719 93.035156 29.210938 C 92.90625 29.160156 92.777344 29.121094 92.644531 29.09375 C 92.511719 29.070312 92.378906 29.054688 92.246094 29.050781 C 92.175781 28.929688 92.078125 28.835938 91.957031 28.765625 C 91.835938 28.699219 91.707031 28.667969 91.566406 28.671875 C 91.460938 28.6875 91.359375 28.726562 91.269531 28.78125 C 91.175781 28.839844 91.097656 28.910156 91.03125 28.996094 C 90.964844 29.082031 90.917969 29.179688 90.886719 29.28125 C 90.855469 29.386719 90.84375 29.492188 90.855469 29.601562 C 90.875 29.859375 90.960938 30.09375 91.113281 30.300781 C 90.453125 30.535156 89.910156 30.925781 89.480469 31.480469 C 89.03125 32.1875 88.648438 32.929688 88.335938 33.707031 C 88.03125 34.257812 87.625 34.714844 87.113281 35.078125 Z M 87.113281 35.078125 "/><path style=" stroke:none;fill-rule:nonzero;fill:#ffffff;fill-opacity:1;" d="M 60.570312 40.082031 C 60.492188 40.097656 60.339844 40.125 60.261719 40.136719 C 59.871094 40.636719 59.667969 41.199219 59.652344 41.832031 C 59.648438 41.996094 59.5625 42.238281 59.757812 42.324219 C 60.089844 42.394531 60.417969 42.398438 60.75 42.332031 C 60.832031 42.039062 60.855469 41.738281 60.8125 41.4375 C 60.761719 40.984375 60.863281 40.472656 60.570312 40.082031 Z M 60.570312 40.082031 "/><path style=" stroke:none;fill-rule:nonzero;fill:#ffffff;fill-opacity:1;" d="M 80.796875 37.46875 C 81.0625 37 81.417969 36.613281 81.855469 36.300781 C 82.296875 35.992188 82.78125 35.792969 83.3125 35.699219 C 84.039062 35.535156 84.757812 35.328125 85.464844 35.101562 C 84.722656 34.640625 84.082031 34.0625 83.542969 33.371094 C 82.933594 32.34375 82.410156 31.277344 81.964844 30.171875 C 81.613281 30.347656 81.304688 30.582031 81.03125 30.867188 C 80.757812 31.152344 80.539062 31.472656 80.375 31.832031 C 80.828125 32.402344 81.351562 32.921875 81.757812 33.527344 C 81.6875 33.613281 81.617188 33.695312 81.546875 33.78125 C 80.988281 33.386719 80.488281 32.910156 79.949219 32.484375 C 79.75 33.066406 79.652344 33.660156 79.65625 34.273438 C 80.097656 34.539062 80.613281 34.648438 81.070312 34.886719 C 81.226562 34.953125 81.3125 35.070312 81.339844 35.238281 C 80.789062 35.164062 80.238281 35.105469 79.6875 35.074219 C 79.824219 35.984375 80.191406 36.78125 80.796875 37.46875 Z M 80.796875 37.46875 "/><path style=" stroke:none;fill-rule:nonzero;fill:#ffffff;fill-opacity:1;" d="M 78.214844 44.90625 C 78.425781 44.953125 78.757812 45.1875 78.886719 44.910156 C 79.066406 43.894531 79.152344 42.867188 79.152344 41.835938 C 79.175781 41.117188 79.058594 40.421875 78.804688 39.75 C 78.550781 39.078125 78.175781 38.484375 77.679688 37.964844 C 77.453125 37.769531 77.136719 37.496094 76.828125 37.675781 C 76.761719 37.714844 76.707031 37.765625 76.664062 37.828125 C 76.621094 37.890625 76.59375 37.957031 76.582031 38.035156 C 76.570312 38.109375 76.570312 38.183594 76.589844 38.257812 C 76.613281 38.332031 76.648438 38.398438 76.695312 38.457031 C 77.074219 39.019531 77.355469 39.632812 77.542969 40.285156 C 77.804688 41.738281 77.785156 43.183594 77.484375 44.628906 C 77.613281 44.90625 77.980469 44.785156 78.214844 44.90625 Z M 78.214844 44.90625 "/><path style=" stroke:none;fill-rule:nonzero;fill:#ffffff;fill-opacity:1;" d="M 93.097656 32.207031 C 92.902344 32.417969 92.777344 32.664062 92.722656 32.945312 C 92.667969 33.230469 92.691406 33.503906 92.796875 33.773438 C 92.828125 33.84375 92.871094 33.90625 92.929688 33.957031 C 92.988281 34.007812 93.054688 34.042969 93.128906 34.0625 C 93.203125 34.082031 93.277344 34.085938 93.355469 34.070312 C 93.429688 34.054688 93.496094 34.023438 93.558594 33.976562 C 93.796875 33.820312 93.710938 33.5 93.769531 33.265625 C 93.800781 33.042969 93.894531 32.84375 94.042969 32.675781 C 94.171875 32.652344 94.296875 32.613281 94.421875 32.558594 C 94.449219 32.527344 94.472656 32.492188 94.488281 32.453125 C 94.503906 32.414062 94.511719 32.375 94.511719 32.332031 C 94.507812 32.289062 94.5 32.25 94.484375 32.210938 C 94.464844 32.171875 94.4375 32.136719 94.40625 32.109375 C 94.308594 32.046875 94.199219 32.003906 94.085938 31.976562 C 93.972656 31.949219 93.855469 31.941406 93.738281 31.949219 C 93.621094 31.957031 93.507812 31.984375 93.398438 32.027344 C 93.289062 32.074219 93.191406 32.132812 93.097656 32.207031 Z M 93.097656 32.207031 "/><path style=" stroke:none;fill-rule:nonzero;fill:#ffffff;fill-opacity:1;" d="M 75.417969 41.539062 C 75.367188 41.5 75.3125 41.476562 75.253906 41.464844 C 75.191406 41.457031 75.132812 41.460938 75.074219 41.480469 C 75.015625 41.5 74.964844 41.53125 74.921875 41.578125 C 74.878906 41.621094 74.851562 41.675781 74.832031 41.734375 C 74.878906 42.210938 74.988281 42.671875 75.164062 43.117188 C 75.257812 43.457031 75.273438 43.816406 75.382812 44.15625 C 75.710938 44.308594 76.054688 44.359375 76.414062 44.304688 C 76.503906 43.796875 76.441406 43.308594 76.230469 42.835938 C 76.082031 42.324219 75.8125 41.890625 75.417969 41.539062 Z M 75.417969 41.539062 "/><path style=" stroke:none;fill-rule:nonzero;fill:#ffffff;fill-opacity:1;" d="M 57.894531 37.886719 C 57.335938 38.367188 56.734375 38.792969 56.09375 39.160156 C 55.953125 40.078125 55.890625 41.003906 55.90625 41.933594 C 55.898438 41.984375 55.902344 42.039062 55.917969 42.09375 C 55.933594 42.144531 55.960938 42.191406 56 42.230469 C 56.035156 42.269531 56.082031 42.300781 56.132812 42.320312 C 56.183594 42.335938 56.238281 42.34375 56.292969 42.335938 C 56.757812 42.335938 57.21875 42.355469 57.683594 42.328125 C 57.941406 42.269531 57.9375 41.941406 57.9375 41.730469 C 57.910156 40.449219 57.957031 39.164062 57.894531 37.886719 Z M 57.894531 37.886719 "/><path style=" stroke:none;fill-rule:nonzero;fill:#ffffff;fill-opacity:1;" d="M 65.210938 38.613281 C 64.667969 38.644531 64.171875 38.820312 63.726562 39.140625 C 63.191406 39.511719 62.75 39.976562 62.410156 40.539062 C 62.074219 41.097656 61.859375 41.703125 61.777344 42.351562 C 62.230469 42.382812 62.679688 42.386719 63.128906 42.355469 C 63.25 42.195312 63.339844 42.019531 63.394531 41.824219 C 63.558594 41.378906 63.789062 40.96875 64.089844 40.601562 C 64.386719 40.230469 64.738281 39.921875 65.144531 39.671875 C 65.335938 39.542969 65.585938 39.449219 65.675781 39.214844 C 65.707031 38.941406 65.527344 38.578125 65.210938 38.613281 Z M 65.210938 38.613281 "/><path style=" stroke:none;fill-rule:nonzero;fill:#ffffff;fill-opacity:1;" d="M 89.90625 45.710938 C 89.453125 45.554688 88.996094 45.410156 88.539062 45.265625 C 86.21875 44.546875 83.84375 44.03125 81.472656 43.53125 C 81.3125 43.488281 81.15625 43.5 81.003906 43.566406 C 80.773438 43.730469 80.601562 43.941406 80.492188 44.203125 C 80.382812 44.464844 80.347656 44.738281 80.390625 45.019531 C 80.398438 45.144531 80.445312 45.257812 80.53125 45.355469 C 80.617188 45.453125 80.722656 45.511719 80.847656 45.53125 C 81.808594 45.828125 82.785156 46.074219 83.75 46.347656 C 85.046875 46.726562 86.339844 47.144531 87.609375 47.589844 C 88.539062 46.851562 89.039062 46.441406 89.90625 45.710938 Z M 89.90625 45.710938 "/><path style=" stroke:none;fill-rule:nonzero;fill:#ffffff;fill-opacity:1;" d="M 86.050781 48.796875 C 82.59375 47.660156 79.082031 46.710938 75.515625 45.957031 C 71.101562 45.015625 66.644531 44.394531 62.144531 44.09375 C 59.292969 43.898438 56.433594 43.867188 53.578125 44 C 52.871094 44.042969 51.988281 44.128906 51.066406 44.234375 C 52.148438 45.207031 52.773438 45.734375 53.910156 46.652344 C 57.117188 46.480469 60.324219 46.542969 63.535156 46.84375 C 66.042969 47.082031 68.550781 47.347656 71.039062 47.75 C 75.230469 48.414062 79.351562 49.375 83.402344 50.644531 L 83.503906 50.683594 C 84.527344 49.957031 85.082031 49.542969 86.050781 48.796875 Z M 86.050781 48.796875 "/><path style=" stroke:none;fill-rule:nonzero;fill:#ffffff;fill-opacity:1;" d="M 81.683594 51.964844 C 79.882812 51.386719 78.121094 50.875 76.71875 50.570312 C 74.449219 50.058594 72.167969 49.589844 69.859375 49.28125 C 65.246094 48.535156 55.941406 48.269531 55.941406 48.269531 C 57.308594 49.335938 58.085938 49.917969 59.488281 50.90625 C 59.964844 50.925781 60.441406 50.953125 60.917969 50.984375 C 63.507812 51.152344 66.097656 51.375 68.671875 51.757812 C 70.636719 52.007812 72.585938 52.390625 74.535156 52.765625 C 76.015625 53.058594 77.484375 53.417969 78.949219 53.796875 C 80.035156 53.09375 80.632812 52.691406 81.683594 51.964844 Z M 81.683594 51.964844 "/><g clip-rule="nonzero" clip-path="url(#08df2ff25c)"><path style=" stroke:none;fill-rule:nonzero;fill:#ffffff;fill-opacity:1;" d="M 77 55.035156 C 74.644531 54.464844 72.265625 54 69.859375 53.644531 C 67.3125 53.238281 64.757812 52.953125 62.195312 52.78125 C 64.074219 54.074219 65.164062 54.765625 67.167969 55.949219 C 68.121094 56.058594 69.007812 56.175781 69.761719 56.308594 C 69.761719 56.308594 71.261719 56.628906 73.464844 57.15625 C 74.871094 56.34375 75.640625 55.878906 77 55.035156 Z M 77 55.035156 "/></g><g clip-rule="nonzero" clip-path="url(#0058c0948e)"><g transform="matrix(1,0,0,1,-0.000000000000003553,119)"><g id="9923478ea0" clip-path="url(#5d2876d259)"><g style="fill:#ff009d;fill-opacity:1;"><g transform="translate(0.283075, 61.948113)"><path style="stroke:none" d="M 43.28125 -46.875 L 43.28125 0 L 34.71875 0 L 14.328125 -29.5 L 13.984375 -29.5 L 13.984375 0 L 4.078125 0 L 4.078125 -46.875 L 12.765625 -46.875 L 33 -17.390625 L 33.421875 -17.390625 L 33.421875 -46.875 Z M 43.28125 -46.875 "/></g></g><g style="fill:#ff009d;fill-opacity:1;"><g transform="translate(42.444986, 61.948113)"><path style="stroke:none" d="M 13.921875 0.65625 C 10.554688 0.65625 7.769531 -0.21875 5.5625 -1.96875 C 3.351562 -3.71875 2.25 -6.332031 2.25 -9.8125 C 2.25 -12.4375 2.863281 -14.492188 4.09375 -15.984375 C 5.332031 -17.484375 6.953125 -18.582031 8.953125 -19.28125 C 10.960938 -19.976562 13.128906 -20.429688 15.453125 -20.640625 C 18.503906 -20.953125 20.6875 -21.273438 22 -21.609375 C 23.3125 -21.941406 23.96875 -22.671875 23.96875 -23.796875 L 23.96875 -23.9375 C 23.96875 -25.382812 23.507812 -26.503906 22.59375 -27.296875 C 21.6875 -28.097656 20.40625 -28.5 18.75 -28.5 C 16.988281 -28.5 15.585938 -28.113281 14.546875 -27.34375 C 13.515625 -26.582031 12.832031 -25.613281 12.5 -24.4375 L 3.484375 -25.171875 C 4.148438 -28.378906 5.8125 -30.921875 8.46875 -32.796875 C 11.132812 -34.671875 14.578125 -35.609375 18.796875 -35.609375 C 21.398438 -35.609375 23.835938 -35.195312 26.109375 -34.375 C 28.390625 -33.550781 30.226562 -32.265625 31.625 -30.515625 C 33.019531 -28.773438 33.71875 -26.507812 33.71875 -23.71875 L 33.71875 0 L 24.46875 0 L 24.46875 -4.875 L 24.1875 -4.875 C 23.332031 -3.238281 22.054688 -1.90625 20.359375 -0.875 C 18.660156 0.144531 16.515625 0.65625 13.921875 0.65625 Z M 16.703125 -6.0625 C 18.835938 -6.0625 20.59375 -6.679688 21.96875 -7.921875 C 23.34375 -9.171875 24.03125 -10.71875 24.03125 -12.5625 L 24.03125 -16.296875 C 23.644531 -16.035156 23.050781 -15.804688 22.25 -15.609375 C 21.457031 -15.410156 20.601562 -15.238281 19.6875 -15.09375 C 18.78125 -14.945312 17.96875 -14.820312 17.25 -14.71875 C 15.539062 -14.46875 14.164062 -13.984375 13.125 -13.265625 C 12.082031 -12.554688 11.5625 -11.515625 11.5625 -10.140625 C 11.5625 -8.796875 12.046875 -7.78125 13.015625 -7.09375 C 13.984375 -6.40625 15.210938 -6.0625 16.703125 -6.0625 Z M 16.703125 -6.0625 "/></g></g><g style="fill:#ff009d;fill-opacity:1;"><g transform="translate(73.34479, 61.948113)"><path style="stroke:none" d="M 9.5625 13.6875 C 8.175781 13.6875 6.988281 13.566406 6 13.328125 C 5.019531 13.097656 4.253906 12.859375 3.703125 12.609375 L 5.90625 5.0625 C 7.625 5.582031 9.078125 5.71875 10.265625 5.46875 C 11.453125 5.226562 12.382812 4.304688 13.0625 2.703125 L 13.703125 1 L 1.09375 -35.15625 L 11.359375 -35.15625 L 18.625 -9.34375 L 19 -9.34375 L 26.34375 -35.15625 L 36.671875 -35.15625 L 22.9375 4.03125 C 21.945312 6.832031 20.363281 9.140625 18.1875 10.953125 C 16.007812 12.773438 13.132812 13.6875 9.5625 13.6875 Z M 9.5625 13.6875 "/></g></g><g style="fill:#ff009d;fill-opacity:1;"><g transform="translate(106.991475, 61.948113)"><path style="stroke:none" d="M 3.890625 0 L 3.890625 -35.15625 L 13.640625 -35.15625 L 13.640625 0 Z M 8.796875 -39.6875 C 7.359375 -39.6875 6.117188 -40.171875 5.078125 -41.140625 C 4.046875 -42.109375 3.53125 -43.269531 3.53125 -44.625 C 3.53125 -45.988281 4.046875 -47.148438 5.078125 -48.109375 C 6.117188 -49.066406 7.359375 -49.546875 8.796875 -49.546875 C 10.242188 -49.546875 11.484375 -49.066406 12.515625 -48.109375 C 13.554688 -47.148438 14.078125 -45.988281 14.078125 -44.625 C 14.078125 -43.269531 13.554688 -42.109375 12.515625 -41.140625 C 11.484375 -40.171875 10.242188 -39.6875 8.796875 -39.6875 Z M 8.796875 -39.6875 "/></g></g><g style="fill:#ffffff;fill-opacity:1;"><g transform="translate(119.307554, 61.948113)"><path style="stroke:none" d=""/></g></g><g style="fill:#000000;fill-opacity:1;"><g transform="translate(129.03838, 61.948113)"><path style="stroke:none" d="M 20.6875 0 L 4.078125 0 L 4.078125 -46.875 L 20.828125 -46.875 C 25.546875 -46.875 29.609375 -45.9375 33.015625 -44.0625 C 36.421875 -42.195312 39.039062 -39.515625 40.875 -36.015625 C 42.707031 -32.523438 43.625 -28.347656 43.625 -23.484375 C 43.625 -18.597656 42.703125 -14.398438 40.859375 -10.890625 C 39.023438 -7.378906 36.394531 -4.6875 32.96875 -2.8125 C 29.539062 -0.9375 25.445312 0 20.6875 0 Z M 13.984375 -8.484375 L 20.28125 -8.484375 C 24.6875 -8.484375 28.03125 -9.671875 30.3125 -12.046875 C 32.59375 -14.429688 33.734375 -18.242188 33.734375 -23.484375 C 33.734375 -28.679688 32.59375 -32.460938 30.3125 -34.828125 C 28.03125 -37.203125 24.691406 -38.390625 20.296875 -38.390625 L 13.984375 -38.390625 Z M 13.984375 -8.484375 "/></g></g><g style="fill:#000000;fill-opacity:1;"><g transform="translate(170.696701, 61.948113)"><path style="stroke:none" d="M 3.890625 0 L 3.890625 -35.15625 L 13.640625 -35.15625 L 13.640625 0 Z M 8.796875 -39.6875 C 7.359375 -39.6875 6.117188 -40.171875 5.078125 -41.140625 C 4.046875 -42.109375 3.53125 -43.269531 3.53125 -44.625 C 3.53125 -45.988281 4.046875 -47.148438 5.078125 -48.109375 C 6.117188 -49.066406 7.359375 -49.546875 8.796875 -49.546875 C 10.242188 -49.546875 11.484375 -49.066406 12.515625 -48.109375 C 13.554688 -47.148438 14.078125 -45.988281 14.078125 -44.625 C 14.078125 -43.269531 13.554688 -42.109375 12.515625 -41.140625 C 11.484375 -40.171875 10.242188 -39.6875 8.796875 -39.6875 Z M 8.796875 -39.6875 "/></g></g><g style="fill:#000000;fill-opacity:1;"><g transform="translate(183.009484, 61.948113)"><path style="stroke:none" d="M 33.140625 -25.125 L 24.21875 -24.578125 C 23.96875 -25.710938 23.347656 -26.679688 22.359375 -27.484375 C 21.367188 -28.296875 20.023438 -28.703125 18.328125 -28.703125 C 16.816406 -28.703125 15.539062 -28.382812 14.5 -27.75 C 13.457031 -27.113281 12.941406 -26.269531 12.953125 -25.21875 C 12.941406 -24.382812 13.273438 -23.675781 13.953125 -23.09375 C 14.628906 -22.507812 15.785156 -22.046875 17.421875 -21.703125 L 23.78125 -20.421875 C 30.539062 -19.023438 33.925781 -15.847656 33.9375 -10.890625 C 33.9375 -8.585938 33.257812 -6.566406 31.90625 -4.828125 C 30.5625 -3.085938 28.710938 -1.734375 26.359375 -0.765625 C 24.015625 0.203125 21.320312 0.6875 18.28125 0.6875 C 13.632812 0.6875 9.925781 -0.285156 7.15625 -2.234375 C 4.394531 -4.179688 2.785156 -6.832031 2.328125 -10.1875 L 11.921875 -10.6875 C 12.222656 -9.25 12.925781 -8.164062 14.03125 -7.4375 C 15.144531 -6.707031 16.570312 -6.34375 18.3125 -6.34375 C 20.019531 -6.34375 21.394531 -6.675781 22.4375 -7.34375 C 23.488281 -8.019531 24.019531 -8.875 24.03125 -9.90625 C 23.988281 -11.644531 22.488281 -12.8125 19.53125 -13.40625 L 13.4375 -14.625 C 6.632812 -15.976562 3.242188 -19.328125 3.265625 -24.671875 C 3.253906 -28.054688 4.609375 -30.722656 7.328125 -32.671875 C 10.054688 -34.628906 13.671875 -35.609375 18.171875 -35.609375 C 22.609375 -35.609375 26.101562 -34.671875 28.65625 -32.796875 C 31.21875 -30.921875 32.710938 -28.363281 33.140625 -25.125 Z M 33.140625 -25.125 "/></g></g><g style="fill:#000000;fill-opacity:1;"><g transform="translate(214.000859, 61.948113)"><path style="stroke:none" d="M 13.640625 -20.328125 L 13.640625 0 L 3.890625 0 L 3.890625 -46.875 L 13.359375 -46.875 L 13.359375 -28.953125 L 13.78125 -28.953125 C 14.582031 -31.023438 15.863281 -32.648438 17.625 -33.828125 C 19.394531 -35.015625 21.613281 -35.609375 24.28125 -35.609375 C 27.945312 -35.609375 30.890625 -34.429688 33.109375 -32.078125 C 35.335938 -29.734375 36.445312 -26.503906 36.4375 -22.390625 L 36.4375 0 L 26.6875 0 L 26.6875 -20.640625 C 26.695312 -22.804688 26.148438 -24.492188 25.046875 -25.703125 C 23.941406 -26.910156 22.398438 -27.515625 20.421875 -27.515625 C 18.429688 -27.515625 16.804688 -26.882812 15.546875 -25.625 C 14.296875 -24.363281 13.660156 -22.597656 13.640625 -20.328125 Z M 13.640625 -20.328125 "/></g></g><g style="fill:#000000;fill-opacity:1;"><g transform="translate(249.020949, 61.948113)"><path style="stroke:none" d="M 13.921875 0.65625 C 10.554688 0.65625 7.769531 -0.21875 5.5625 -1.96875 C 3.351562 -3.71875 2.25 -6.332031 2.25 -9.8125 C 2.25 -12.4375 2.863281 -14.492188 4.09375 -15.984375 C 5.332031 -17.484375 6.953125 -18.582031 8.953125 -19.28125 C 10.960938 -19.976562 13.128906 -20.429688 15.453125 -20.640625 C 18.503906 -20.953125 20.6875 -21.273438 22 -21.609375 C 23.3125 -21.941406 23.96875 -22.671875 23.96875 -23.796875 L 23.96875 -23.9375 C 23.96875 -25.382812 23.507812 -26.503906 22.59375 -27.296875 C 21.6875 -28.097656 20.40625 -28.5 18.75 -28.5 C 16.988281 -28.5 15.585938 -28.113281 14.546875 -27.34375 C 13.515625 -26.582031 12.832031 -25.613281 12.5 -24.4375 L 3.484375 -25.171875 C 4.148438 -28.378906 5.8125 -30.921875 8.46875 -32.796875 C 11.132812 -34.671875 14.578125 -35.609375 18.796875 -35.609375 C 21.398438 -35.609375 23.835938 -35.195312 26.109375 -34.375 C 28.390625 -33.550781 30.226562 -32.265625 31.625 -30.515625 C 33.019531 -28.773438 33.71875 -26.507812 33.71875 -23.71875 L 33.71875 0 L 24.46875 0 L 24.46875 -4.875 L 24.1875 -4.875 C 23.332031 -3.238281 22.054688 -1.90625 20.359375 -0.875 C 18.660156 0.144531 16.515625 0.65625 13.921875 0.65625 Z M 16.703125 -6.0625 C 18.835938 -6.0625 20.59375 -6.679688 21.96875 -7.921875 C 23.34375 -9.171875 24.03125 -10.71875 24.03125 -12.5625 L 24.03125 -16.296875 C 23.644531 -16.035156 23.050781 -15.804688 22.25 -15.609375 C 21.457031 -15.410156 20.601562 -15.238281 19.6875 -15.09375 C 18.78125 -14.945312 17.96875 -14.820312 17.25 -14.71875 C 15.539062 -14.46875 14.164062 -13.984375 13.125 -13.265625 C 12.082031 -12.554688 11.5625 -11.515625 11.5625 -10.140625 C 11.5625 -8.796875 12.046875 -7.78125 13.015625 -7.09375 C 13.984375 -6.40625 15.210938 -6.0625 16.703125 -6.0625 Z M 16.703125 -6.0625 "/></g></g></g></g></g></g></g></g></svg>