<svg xmlns="http://www.w3.org/2000/svg" xmlns:xlink="http://www.w3.org/1999/xlink" width="442" zoomAndPan="magnify" viewBox="0 0 331.5 236.249991" height="315" preserveAspectRatio="xMidYMid meet" version="1.2"><defs><clipPath id="e70c4af5d7"><path d="M 2 196 L 302.773438 196 L 302.773438 227.039062 L 2 227.039062 Z M 2 196 "/></clipPath><clipPath id="0cd59e63c2"><path d="M 0.046875 6 L 17 6 L 17 25 L 0.046875 25 Z M 0.046875 6 "/></clipPath><clipPath id="e30a78e9df"><rect x="0" width="301" y="0" height="32"/></clipPath><clipPath id="8abda51076"><path d="M 2.894531 16 L 139.59375 16 L 139.59375 120.03125 L 2.894531 120.03125 Z M 2.894531 16 "/></clipPath><clipPath id="e0cec7399e"><path d="M 45.253906 12.21875 L 90 12.21875 L 90 44 L 45.253906 44 Z M 45.253906 12.21875 "/></clipPath><clipPath id="aeb5dedd93"><path d="M 81 28 L 95.265625 28 L 95.265625 44 L 81 44 Z M 81 28 "/></clipPath><clipPath id="be83cd0a20"><path d="M 93 31 L 95.265625 31 L 95.265625 35 L 93 35 Z M 93 31 "/></clipPath><clipPath id="5e308ff167"><path d="M 62 52 L 78 52 L 78 57.230469 L 62 57.230469 Z M 62 52 "/></clipPath><clipPath id="814fd4e563"><rect x="0" width="303" y="0" height="228"/></clipPath></defs><g id="f5297326cf"><g transform="matrix(1,0,0,1,20,0)"><g clip-path="url(#814fd4e563)"><g clip-rule="nonzero" clip-path="url(#e70c4af5d7)"><g transform="matrix(1,0,0,1,2,196)"><g id="9819a501c9" clip-path="url(#e30a78e9df)"><g clip-rule="nonzero" clip-path="url(#0cd59e63c2)"><g style="fill:#ffffff;fill-opacity:1;"><g transform="translate(0.212335, 24.902537)"><path style="stroke:none" d="M 8.40625 0 L 9.140625 -4.515625 L 5.59375 -4.515625 L 4.84375 0 L 2 0 L 2.75 -4.515625 L 0.25 -4.515625 L 0.734375 -7.359375 L 3.21875 -7.359375 L 3.78125 -10.84375 L 1.296875 -10.84375 L 1.78125 -13.6875 L 4.25 -13.6875 L 5 -18.1875 L 7.828125 -18.1875 L 7.09375 -13.6875 L 10.65625 -13.6875 L 11.390625 -18.1875 L 14.234375 -18.1875 L 13.5 -13.6875 L 15.984375 -13.6875 L 15.515625 -10.84375 L 13.015625 -10.84375 L 12.453125 -7.359375 L 14.9375 -7.359375 L 14.46875 -4.515625 L 11.984375 -4.515625 L 11.25 0 Z M 6.0625 -7.359375 L 9.609375 -7.359375 L 10.1875 -10.84375 L 6.625 -10.84375 Z M 6.0625 -7.359375 "/></g></g></g><g style="fill:#ffffff;fill-opacity:1;"><g transform="translate(14.930365, 24.902537)"><path style="stroke:none" d="M 12.84375 -18.1875 L 16.671875 -18.1875 L 16.671875 -6.171875 C 16.671875 -4.796875 16.347656 -3.628906 15.703125 -2.671875 C 15.054688 -1.710938 14.164062 -0.984375 13.03125 -0.484375 C 11.894531 0.00390625 10.59375 0.25 9.125 0.25 C 7.65625 0.25 6.351562 0.00390625 5.21875 -0.484375 C 4.082031 -0.984375 3.191406 -1.710938 2.546875 -2.671875 C 1.898438 -3.628906 1.578125 -4.796875 1.578125 -6.171875 L 1.578125 -18.1875 L 5.421875 -18.1875 L 5.421875 -6.296875 C 5.421875 -5.328125 5.769531 -4.5625 6.46875 -4 C 7.175781 -3.445312 8.0625 -3.171875 9.125 -3.171875 C 10.195312 -3.171875 11.082031 -3.445312 11.78125 -4 C 12.488281 -4.5625 12.84375 -5.328125 12.84375 -6.296875 Z M 12.84375 -18.1875 "/></g></g><g style="fill:#ffffff;fill-opacity:1;"><g transform="translate(31.646747, 24.902537)"><path style="stroke:none" d="M 8.765625 -13.640625 L 8.765625 -10.796875 L 6.203125 -10.796875 L 6.203125 -4.1875 C 6.203125 -3.664062 6.316406 -3.3125 6.546875 -3.125 C 6.785156 -2.945312 7.097656 -2.859375 7.484375 -2.859375 C 7.660156 -2.859375 7.835938 -2.875 8.015625 -2.90625 C 8.191406 -2.9375 8.328125 -2.960938 8.421875 -2.984375 L 9.015625 -0.171875 C 8.828125 -0.109375 8.5625 -0.0390625 8.21875 0.03125 C 7.875 0.113281 7.457031 0.164062 6.96875 0.1875 C 5.59375 0.25 4.488281 -0.046875 3.65625 -0.703125 C 2.820312 -1.359375 2.410156 -2.359375 2.421875 -3.703125 L 2.421875 -10.796875 L 0.546875 -10.796875 L 0.546875 -13.640625 L 2.421875 -13.640625 L 2.421875 -16.921875 L 6.203125 -16.921875 L 6.203125 -13.640625 Z M 8.765625 -13.640625 "/></g></g><g style="fill:#ffffff;fill-opacity:1;"><g transform="translate(40.121098, 24.902537)"><path style="stroke:none" d="M 5.296875 -7.890625 L 5.296875 0 L 1.515625 0 L 1.515625 -18.1875 L 5.1875 -18.1875 L 5.1875 -11.234375 L 5.34375 -11.234375 C 5.65625 -12.046875 6.15625 -12.679688 6.84375 -13.140625 C 7.53125 -13.597656 8.390625 -13.828125 9.421875 -13.828125 C 10.847656 -13.828125 11.992188 -13.367188 12.859375 -12.453125 C 13.722656 -11.546875 14.148438 -10.289062 14.140625 -8.6875 L 14.140625 0 L 10.359375 0 L 10.359375 -8.015625 C 10.359375 -8.859375 10.144531 -9.507812 9.71875 -9.96875 C 9.289062 -10.4375 8.691406 -10.671875 7.921875 -10.671875 C 7.148438 -10.671875 6.519531 -10.425781 6.03125 -9.9375 C 5.539062 -9.457031 5.296875 -8.773438 5.296875 -7.890625 Z M 5.296875 -7.890625 "/></g></g><g style="fill:#ffffff;fill-opacity:1;"><g transform="translate(54.208535, 24.902537)"><path style="stroke:none" d="M 5.40625 0.25 C 4.101562 0.25 3.019531 -0.0859375 2.15625 -0.765625 C 1.300781 -1.441406 0.875 -2.457031 0.875 -3.8125 C 0.875 -4.832031 1.113281 -5.628906 1.59375 -6.203125 C 2.070312 -6.785156 2.695312 -7.210938 3.46875 -7.484375 C 4.25 -7.753906 5.09375 -7.929688 6 -8.015625 C 7.175781 -8.128906 8.019531 -8.25 8.53125 -8.375 C 9.039062 -8.507812 9.296875 -8.796875 9.296875 -9.234375 L 9.296875 -9.296875 C 9.296875 -9.859375 9.117188 -10.289062 8.765625 -10.59375 C 8.421875 -10.90625 7.925781 -11.0625 7.28125 -11.0625 C 6.59375 -11.0625 6.046875 -10.910156 5.640625 -10.609375 C 5.242188 -10.316406 4.976562 -9.941406 4.84375 -9.484375 L 1.34375 -9.765625 C 1.601562 -11.015625 2.25 -12.003906 3.28125 -12.734375 C 4.320312 -13.460938 5.660156 -13.828125 7.296875 -13.828125 C 8.304688 -13.828125 9.25 -13.664062 10.125 -13.34375 C 11.007812 -13.019531 11.722656 -12.519531 12.265625 -11.84375 C 12.804688 -11.164062 13.078125 -10.285156 13.078125 -9.203125 L 13.078125 0 L 9.5 0 L 9.5 -1.890625 L 9.390625 -1.890625 C 9.054688 -1.253906 8.554688 -0.738281 7.890625 -0.34375 C 7.234375 0.0507812 6.40625 0.25 5.40625 0.25 Z M 6.484375 -2.359375 C 7.316406 -2.359375 8 -2.597656 8.53125 -3.078125 C 9.0625 -3.554688 9.328125 -4.15625 9.328125 -4.875 L 9.328125 -6.328125 C 9.179688 -6.222656 8.953125 -6.128906 8.640625 -6.046875 C 8.328125 -5.972656 7.992188 -5.910156 7.640625 -5.859375 C 7.285156 -5.804688 6.972656 -5.757812 6.703125 -5.71875 C 6.035156 -5.613281 5.5 -5.421875 5.09375 -5.140625 C 4.6875 -4.867188 4.484375 -4.46875 4.484375 -3.9375 C 4.484375 -3.414062 4.671875 -3.019531 5.046875 -2.75 C 5.421875 -2.488281 5.898438 -2.359375 6.484375 -2.359375 Z M 6.484375 -2.359375 "/></g></g><g style="fill:#ffffff;fill-opacity:1;"><g transform="translate(67.194667, 24.902537)"><path style="stroke:none" d="M 7.671875 0.265625 C 6.296875 0.265625 5.101562 -0.0234375 4.09375 -0.609375 C 3.09375 -1.203125 2.316406 -2.023438 1.765625 -3.078125 C 1.222656 -4.140625 0.953125 -5.367188 0.953125 -6.765625 C 0.953125 -8.179688 1.222656 -9.414062 1.765625 -10.46875 C 2.316406 -11.53125 3.09375 -12.351562 4.09375 -12.9375 C 5.101562 -13.53125 6.296875 -13.828125 7.671875 -13.828125 C 9.054688 -13.828125 10.25 -13.53125 11.25 -12.9375 C 12.25 -12.351562 13.019531 -11.53125 13.5625 -10.46875 C 14.113281 -9.414062 14.390625 -8.179688 14.390625 -6.765625 C 14.390625 -5.367188 14.113281 -4.140625 13.5625 -3.078125 C 13.019531 -2.023438 12.25 -1.203125 11.25 -0.609375 C 10.25 -0.0234375 9.054688 0.265625 7.671875 0.265625 Z M 7.6875 -2.671875 C 8.625 -2.671875 9.332031 -3.0625 9.8125 -3.84375 C 10.300781 -4.625 10.546875 -5.609375 10.546875 -6.796875 C 10.546875 -7.984375 10.300781 -8.96875 9.8125 -9.75 C 9.332031 -10.539062 8.625 -10.9375 7.6875 -10.9375 C 6.738281 -10.9375 6.019531 -10.539062 5.53125 -9.75 C 5.050781 -8.96875 4.8125 -7.984375 4.8125 -6.796875 C 4.8125 -5.609375 5.050781 -4.625 5.53125 -3.84375 C 6.019531 -3.0625 6.738281 -2.671875 7.6875 -2.671875 Z M 7.6875 -2.671875 "/></g></g><g style="fill:#ffffff;fill-opacity:1;"><g transform="translate(81.015662, 24.902537)"><path style="stroke:none" d="M 1.578125 0 L 1.578125 -18.1875 L 5.421875 -18.1875 L 5.421875 -10.171875 L 5.671875 -10.171875 L 12.21875 -18.1875 L 16.828125 -18.1875 L 10.078125 -10.046875 L 16.90625 0 L 12.296875 0 L 7.3125 -7.484375 L 5.421875 -5.171875 L 5.421875 0 Z M 1.578125 0 "/></g></g><g style="fill:#ffffff;fill-opacity:1;"><g transform="translate(96.737312, 24.902537)"><path style="stroke:none" d="M 5.40625 0.25 C 4.101562 0.25 3.019531 -0.0859375 2.15625 -0.765625 C 1.300781 -1.441406 0.875 -2.457031 0.875 -3.8125 C 0.875 -4.832031 1.113281 -5.628906 1.59375 -6.203125 C 2.070312 -6.785156 2.695312 -7.210938 3.46875 -7.484375 C 4.25 -7.753906 5.09375 -7.929688 6 -8.015625 C 7.175781 -8.128906 8.019531 -8.25 8.53125 -8.375 C 9.039062 -8.507812 9.296875 -8.796875 9.296875 -9.234375 L 9.296875 -9.296875 C 9.296875 -9.859375 9.117188 -10.289062 8.765625 -10.59375 C 8.421875 -10.90625 7.925781 -11.0625 7.28125 -11.0625 C 6.59375 -11.0625 6.046875 -10.910156 5.640625 -10.609375 C 5.242188 -10.316406 4.976562 -9.941406 4.84375 -9.484375 L 1.34375 -9.765625 C 1.601562 -11.015625 2.25 -12.003906 3.28125 -12.734375 C 4.320312 -13.460938 5.660156 -13.828125 7.296875 -13.828125 C 8.304688 -13.828125 9.25 -13.664062 10.125 -13.34375 C 11.007812 -13.019531 11.722656 -12.519531 12.265625 -11.84375 C 12.804688 -11.164062 13.078125 -10.285156 13.078125 -9.203125 L 13.078125 0 L 9.5 0 L 9.5 -1.890625 L 9.390625 -1.890625 C 9.054688 -1.253906 8.554688 -0.738281 7.890625 -0.34375 C 7.234375 0.0507812 6.40625 0.25 5.40625 0.25 Z M 6.484375 -2.359375 C 7.316406 -2.359375 8 -2.597656 8.53125 -3.078125 C 9.0625 -3.554688 9.328125 -4.15625 9.328125 -4.875 L 9.328125 -6.328125 C 9.179688 -6.222656 8.953125 -6.128906 8.640625 -6.046875 C 8.328125 -5.972656 7.992188 -5.910156 7.640625 -5.859375 C 7.285156 -5.804688 6.972656 -5.757812 6.703125 -5.71875 C 6.035156 -5.613281 5.5 -5.421875 5.09375 -5.140625 C 4.6875 -4.867188 4.484375 -4.46875 4.484375 -3.9375 C 4.484375 -3.414062 4.671875 -3.019531 5.046875 -2.75 C 5.421875 -2.488281 5.898438 -2.359375 6.484375 -2.359375 Z M 6.484375 -2.359375 "/></g></g><g style="fill:#ffffff;fill-opacity:1;"><g transform="translate(109.723444, 24.902537)"><path style="stroke:none" d="M 6.53125 0.21875 C 5.5 0.21875 4.566406 -0.046875 3.734375 -0.578125 C 2.898438 -1.117188 2.234375 -1.910156 1.734375 -2.953125 C 1.242188 -3.992188 1 -5.28125 1 -6.8125 C 1 -8.375 1.25 -9.671875 1.75 -10.703125 C 2.257812 -11.742188 2.929688 -12.523438 3.765625 -13.046875 C 4.609375 -13.566406 5.53125 -13.828125 6.53125 -13.828125 C 7.289062 -13.828125 7.925781 -13.695312 8.4375 -13.4375 C 8.957031 -13.175781 9.375 -12.851562 9.6875 -12.46875 C 10 -12.09375 10.238281 -11.722656 10.40625 -11.359375 L 10.53125 -11.359375 L 10.53125 -18.1875 L 14.296875 -18.1875 L 14.296875 0 L 10.578125 0 L 10.578125 -2.1875 L 10.40625 -2.1875 C 10.238281 -1.800781 9.988281 -1.421875 9.65625 -1.046875 C 9.332031 -0.679688 8.914062 -0.378906 8.40625 -0.140625 C 7.894531 0.0976562 7.269531 0.21875 6.53125 0.21875 Z M 7.734375 -2.796875 C 8.648438 -2.796875 9.359375 -3.160156 9.859375 -3.890625 C 10.359375 -4.628906 10.609375 -5.609375 10.609375 -6.828125 C 10.609375 -8.046875 10.359375 -9.015625 9.859375 -9.734375 C 9.359375 -10.453125 8.648438 -10.8125 7.734375 -10.8125 C 6.796875 -10.8125 6.082031 -10.441406 5.59375 -9.703125 C 5.113281 -8.960938 4.875 -8.003906 4.875 -6.828125 C 4.875 -5.628906 5.117188 -4.65625 5.609375 -3.90625 C 6.097656 -3.164062 6.804688 -2.796875 7.734375 -2.796875 Z M 7.734375 -2.796875 "/></g></g><g style="fill:#ffffff;fill-opacity:1;"><g transform="translate(124.08621, 24.902537)"><path style="stroke:none" d="M 5.40625 0.25 C 4.101562 0.25 3.019531 -0.0859375 2.15625 -0.765625 C 1.300781 -1.441406 0.875 -2.457031 0.875 -3.8125 C 0.875 -4.832031 1.113281 -5.628906 1.59375 -6.203125 C 2.070312 -6.785156 2.695312 -7.210938 3.46875 -7.484375 C 4.25 -7.753906 5.09375 -7.929688 6 -8.015625 C 7.175781 -8.128906 8.019531 -8.25 8.53125 -8.375 C 9.039062 -8.507812 9.296875 -8.796875 9.296875 -9.234375 L 9.296875 -9.296875 C 9.296875 -9.859375 9.117188 -10.289062 8.765625 -10.59375 C 8.421875 -10.90625 7.925781 -11.0625 7.28125 -11.0625 C 6.59375 -11.0625 6.046875 -10.910156 5.640625 -10.609375 C 5.242188 -10.316406 4.976562 -9.941406 4.84375 -9.484375 L 1.34375 -9.765625 C 1.601562 -11.015625 2.25 -12.003906 3.28125 -12.734375 C 4.320312 -13.460938 5.660156 -13.828125 7.296875 -13.828125 C 8.304688 -13.828125 9.25 -13.664062 10.125 -13.34375 C 11.007812 -13.019531 11.722656 -12.519531 12.265625 -11.84375 C 12.804688 -11.164062 13.078125 -10.285156 13.078125 -9.203125 L 13.078125 0 L 9.5 0 L 9.5 -1.890625 L 9.390625 -1.890625 C 9.054688 -1.253906 8.554688 -0.738281 7.890625 -0.34375 C 7.234375 0.0507812 6.40625 0.25 5.40625 0.25 Z M 6.484375 -2.359375 C 7.316406 -2.359375 8 -2.597656 8.53125 -3.078125 C 9.0625 -3.554688 9.328125 -4.15625 9.328125 -4.875 L 9.328125 -6.328125 C 9.179688 -6.222656 8.953125 -6.128906 8.640625 -6.046875 C 8.328125 -5.972656 7.992188 -5.910156 7.640625 -5.859375 C 7.285156 -5.804688 6.972656 -5.757812 6.703125 -5.71875 C 6.035156 -5.613281 5.5 -5.421875 5.09375 -5.140625 C 4.6875 -4.867188 4.484375 -4.46875 4.484375 -3.9375 C 4.484375 -3.414062 4.671875 -3.019531 5.046875 -2.75 C 5.421875 -2.488281 5.898438 -2.359375 6.484375 -2.359375 Z M 6.484375 -2.359375 "/></g></g><g style="fill:#ffffff;fill-opacity:1;"><g transform="translate(137.072342, 24.902537)"><path style="stroke:none" d="M 1.515625 0 L 1.515625 -13.640625 L 5.109375 -13.640625 L 5.109375 -11.234375 L 5.28125 -11.234375 C 5.5625 -12.046875 6.035156 -12.679688 6.703125 -13.140625 C 7.367188 -13.597656 8.160156 -13.828125 9.078125 -13.828125 C 10.015625 -13.828125 10.8125 -13.59375 11.46875 -13.125 C 12.125 -12.65625 12.5625 -12.023438 12.78125 -11.234375 L 12.921875 -11.234375 C 13.203125 -12.015625 13.707031 -12.640625 14.4375 -13.109375 C 15.164062 -13.585938 16.03125 -13.828125 17.03125 -13.828125 C 18.3125 -13.828125 19.347656 -13.421875 20.140625 -12.609375 C 20.941406 -11.796875 21.34375 -10.648438 21.34375 -9.171875 L 21.34375 0 L 17.5625 0 L 17.5625 -8.4375 C 17.5625 -9.1875 17.359375 -9.75 16.953125 -10.125 C 16.554688 -10.507812 16.054688 -10.703125 15.453125 -10.703125 C 14.765625 -10.703125 14.226562 -10.484375 13.84375 -10.046875 C 13.457031 -9.609375 13.265625 -9.035156 13.265625 -8.328125 L 13.265625 0 L 9.59375 0 L 9.59375 -8.515625 C 9.59375 -9.179688 9.398438 -9.710938 9.015625 -10.109375 C 8.640625 -10.503906 8.140625 -10.703125 7.515625 -10.703125 C 6.890625 -10.703125 6.363281 -10.472656 5.9375 -10.015625 C 5.507812 -9.554688 5.296875 -8.945312 5.296875 -8.1875 L 5.296875 0 Z M 1.515625 0 "/></g></g><g style="fill:#ffffff;fill-opacity:1;"><g transform="translate(158.353848, 24.902537)"><path style="stroke:none" d="M 1.578125 0 L 1.578125 -18.1875 L 8.859375 -18.1875 C 10.867188 -18.1875 12.378906 -17.75 13.390625 -16.875 C 14.398438 -16.007812 14.90625 -14.894531 14.90625 -13.53125 C 14.90625 -12.457031 14.59375 -11.585938 13.96875 -10.921875 C 13.351562 -10.265625 12.570312 -9.832031 11.625 -9.625 L 11.625 -9.4375 C 12.3125 -9.414062 12.957031 -9.222656 13.5625 -8.859375 C 14.175781 -8.492188 14.671875 -7.988281 15.046875 -7.34375 C 15.421875 -6.695312 15.609375 -5.925781 15.609375 -5.03125 C 15.609375 -4.0625 15.367188 -3.195312 14.890625 -2.4375 C 14.421875 -1.6875 13.71875 -1.09375 12.78125 -0.65625 C 11.851562 -0.21875 10.710938 0 9.359375 0 Z M 5.421875 -3.140625 L 8.5625 -3.140625 C 9.644531 -3.140625 10.425781 -3.347656 10.90625 -3.765625 C 11.394531 -4.179688 11.640625 -4.726562 11.640625 -5.40625 C 11.640625 -6.15625 11.367188 -6.769531 10.828125 -7.25 C 10.296875 -7.738281 9.570312 -7.984375 8.65625 -7.984375 L 5.421875 -7.984375 Z M 5.421875 -10.578125 L 8.28125 -10.578125 C 9.0625 -10.578125 9.710938 -10.78125 10.234375 -11.1875 C 10.765625 -11.601562 11.03125 -12.171875 11.03125 -12.890625 C 11.03125 -13.546875 10.796875 -14.070312 10.328125 -14.46875 C 9.859375 -14.875 9.195312 -15.078125 8.34375 -15.078125 L 5.421875 -15.078125 Z M 5.421875 -10.578125 "/></g></g><g style="fill:#ffffff;fill-opacity:1;"><g transform="translate(173.356094, 24.902537)"><path style="stroke:none" d="M 5.40625 0.25 C 4.101562 0.25 3.019531 -0.0859375 2.15625 -0.765625 C 1.300781 -1.441406 0.875 -2.457031 0.875 -3.8125 C 0.875 -4.832031 1.113281 -5.628906 1.59375 -6.203125 C 2.070312 -6.785156 2.695312 -7.210938 3.46875 -7.484375 C 4.25 -7.753906 5.09375 -7.929688 6 -8.015625 C 7.175781 -8.128906 8.019531 -8.25 8.53125 -8.375 C 9.039062 -8.507812 9.296875 -8.796875 9.296875 -9.234375 L 9.296875 -9.296875 C 9.296875 -9.859375 9.117188 -10.289062 8.765625 -10.59375 C 8.421875 -10.90625 7.925781 -11.0625 7.28125 -11.0625 C 6.59375 -11.0625 6.046875 -10.910156 5.640625 -10.609375 C 5.242188 -10.316406 4.976562 -9.941406 4.84375 -9.484375 L 1.34375 -9.765625 C 1.601562 -11.015625 2.25 -12.003906 3.28125 -12.734375 C 4.320312 -13.460938 5.660156 -13.828125 7.296875 -13.828125 C 8.304688 -13.828125 9.25 -13.664062 10.125 -13.34375 C 11.007812 -13.019531 11.722656 -12.519531 12.265625 -11.84375 C 12.804688 -11.164062 13.078125 -10.285156 13.078125 -9.203125 L 13.078125 0 L 9.5 0 L 9.5 -1.890625 L 9.390625 -1.890625 C 9.054688 -1.253906 8.554688 -0.738281 7.890625 -0.34375 C 7.234375 0.0507812 6.40625 0.25 5.40625 0.25 Z M 6.484375 -2.359375 C 7.316406 -2.359375 8 -2.597656 8.53125 -3.078125 C 9.0625 -3.554688 9.328125 -4.15625 9.328125 -4.875 L 9.328125 -6.328125 C 9.179688 -6.222656 8.953125 -6.128906 8.640625 -6.046875 C 8.328125 -5.972656 7.992188 -5.910156 7.640625 -5.859375 C 7.285156 -5.804688 6.972656 -5.757812 6.703125 -5.71875 C 6.035156 -5.613281 5.5 -5.421875 5.09375 -5.140625 C 4.6875 -4.867188 4.484375 -4.46875 4.484375 -3.9375 C 4.484375 -3.414062 4.671875 -3.019531 5.046875 -2.75 C 5.421875 -2.488281 5.898438 -2.359375 6.484375 -2.359375 Z M 6.484375 -2.359375 "/></g></g><g style="fill:#ffffff;fill-opacity:1;"><g transform="translate(186.342226, 24.902537)"><path style="stroke:none" d="M 6.53125 0.21875 C 5.5 0.21875 4.566406 -0.046875 3.734375 -0.578125 C 2.898438 -1.117188 2.234375 -1.910156 1.734375 -2.953125 C 1.242188 -3.992188 1 -5.28125 1 -6.8125 C 1 -8.375 1.25 -9.671875 1.75 -10.703125 C 2.257812 -11.742188 2.929688 -12.523438 3.765625 -13.046875 C 4.609375 -13.566406 5.53125 -13.828125 6.53125 -13.828125 C 7.289062 -13.828125 7.925781 -13.695312 8.4375 -13.4375 C 8.957031 -13.175781 9.375 -12.851562 9.6875 -12.46875 C 10 -12.09375 10.238281 -11.722656 10.40625 -11.359375 L 10.53125 -11.359375 L 10.53125 -18.1875 L 14.296875 -18.1875 L 14.296875 0 L 10.578125 0 L 10.578125 -2.1875 L 10.40625 -2.1875 C 10.238281 -1.800781 9.988281 -1.421875 9.65625 -1.046875 C 9.332031 -0.679688 8.914062 -0.378906 8.40625 -0.140625 C 7.894531 0.0976562 7.269531 0.21875 6.53125 0.21875 Z M 7.734375 -2.796875 C 8.648438 -2.796875 9.359375 -3.160156 9.859375 -3.890625 C 10.359375 -4.628906 10.609375 -5.609375 10.609375 -6.828125 C 10.609375 -8.046875 10.359375 -9.015625 9.859375 -9.734375 C 9.359375 -10.453125 8.648438 -10.8125 7.734375 -10.8125 C 6.796875 -10.8125 6.082031 -10.441406 5.59375 -9.703125 C 5.113281 -8.960938 4.875 -8.003906 4.875 -6.828125 C 4.875 -5.628906 5.117188 -4.65625 5.609375 -3.90625 C 6.097656 -3.164062 6.804688 -2.796875 7.734375 -2.796875 Z M 7.734375 -2.796875 "/></g></g><g style="fill:#ffffff;fill-opacity:1;"><g transform="translate(200.704992, 24.902537)"><path style="stroke:none" d="M 5.296875 -18.1875 L 5.296875 0 L 1.515625 0 L 1.515625 -18.1875 Z M 5.296875 -18.1875 "/></g></g><g style="fill:#ffffff;fill-opacity:1;"><g transform="translate(205.981933, 24.902537)"><path style="stroke:none" d="M 7.671875 0.265625 C 6.296875 0.265625 5.101562 -0.0234375 4.09375 -0.609375 C 3.09375 -1.203125 2.316406 -2.023438 1.765625 -3.078125 C 1.222656 -4.140625 0.953125 -5.367188 0.953125 -6.765625 C 0.953125 -8.179688 1.222656 -9.414062 1.765625 -10.46875 C 2.316406 -11.53125 3.09375 -12.351562 4.09375 -12.9375 C 5.101562 -13.53125 6.296875 -13.828125 7.671875 -13.828125 C 9.054688 -13.828125 10.25 -13.53125 11.25 -12.9375 C 12.25 -12.351562 13.019531 -11.53125 13.5625 -10.46875 C 14.113281 -9.414062 14.390625 -8.179688 14.390625 -6.765625 C 14.390625 -5.367188 14.113281 -4.140625 13.5625 -3.078125 C 13.019531 -2.023438 12.25 -1.203125 11.25 -0.609375 C 10.25 -0.0234375 9.054688 0.265625 7.671875 0.265625 Z M 7.6875 -2.671875 C 8.625 -2.671875 9.332031 -3.0625 9.8125 -3.84375 C 10.300781 -4.625 10.546875 -5.609375 10.546875 -6.796875 C 10.546875 -7.984375 10.300781 -8.96875 9.8125 -9.75 C 9.332031 -10.539062 8.625 -10.9375 7.6875 -10.9375 C 6.738281 -10.9375 6.019531 -10.539062 5.53125 -9.75 C 5.050781 -8.96875 4.8125 -7.984375 4.8125 -6.796875 C 4.8125 -5.609375 5.050781 -4.625 5.53125 -3.84375 C 6.019531 -3.0625 6.738281 -2.671875 7.6875 -2.671875 Z M 7.6875 -2.671875 "/></g></g><g style="fill:#ffffff;fill-opacity:1;"><g transform="translate(219.802917, 24.902537)"><path style="stroke:none" d="M 8.859375 -18.1875 L 12.671875 -18.1875 L 12.671875 -5.5 C 12.671875 -4.332031 12.40625 -3.316406 11.875 -2.453125 C 11.351562 -1.585938 10.628906 -0.921875 9.703125 -0.453125 C 8.773438 0.015625 7.691406 0.25 6.453125 0.25 C 5.359375 0.25 4.363281 0.0546875 3.46875 -0.328125 C 2.582031 -0.722656 1.878906 -1.316406 1.359375 -2.109375 C 0.835938 -2.898438 0.582031 -3.898438 0.59375 -5.109375 L 4.421875 -5.109375 C 4.429688 -4.390625 4.640625 -3.828125 5.046875 -3.421875 C 5.453125 -3.023438 5.988281 -2.828125 6.65625 -2.828125 C 8.113281 -2.828125 8.847656 -3.71875 8.859375 -5.5 Z M 8.859375 -18.1875 "/></g></g><g style="fill:#ffffff;fill-opacity:1;"><g transform="translate(232.531482, 24.902537)"><path style="stroke:none" d="M 7.734375 0.265625 C 6.328125 0.265625 5.117188 -0.0195312 4.109375 -0.59375 C 3.097656 -1.164062 2.316406 -1.976562 1.765625 -3.03125 C 1.222656 -4.082031 0.953125 -5.328125 0.953125 -6.765625 C 0.953125 -8.160156 1.222656 -9.390625 1.765625 -10.453125 C 2.316406 -11.515625 3.085938 -12.34375 4.078125 -12.9375 C 5.066406 -13.53125 6.234375 -13.828125 7.578125 -13.828125 C 8.773438 -13.828125 9.859375 -13.570312 10.828125 -13.0625 C 11.796875 -12.550781 12.5625 -11.78125 13.125 -10.75 C 13.695312 -9.726562 13.984375 -8.441406 13.984375 -6.890625 L 13.984375 -5.859375 L 4.703125 -5.859375 L 4.703125 -5.84375 C 4.703125 -4.820312 4.976562 -4.019531 5.53125 -3.4375 C 6.09375 -2.851562 6.847656 -2.5625 7.796875 -2.5625 C 8.421875 -2.5625 8.960938 -2.691406 9.421875 -2.953125 C 9.890625 -3.222656 10.21875 -3.617188 10.40625 -4.140625 L 13.90625 -3.90625 C 13.644531 -2.632812 12.972656 -1.617188 11.890625 -0.859375 C 10.804688 -0.109375 9.421875 0.265625 7.734375 0.265625 Z M 4.703125 -8.203125 L 10.421875 -8.203125 C 10.421875 -9.015625 10.160156 -9.679688 9.640625 -10.203125 C 9.128906 -10.734375 8.460938 -11 7.640625 -11 C 6.796875 -11 6.101562 -10.722656 5.5625 -10.171875 C 5.03125 -9.628906 4.742188 -8.972656 4.703125 -8.203125 Z M 4.703125 -8.203125 "/></g></g><g style="fill:#ffffff;fill-opacity:1;"><g transform="translate(245.952801, 24.902537)"><path style="stroke:none" d="M 7.734375 0.265625 C 6.328125 0.265625 5.117188 -0.0195312 4.109375 -0.59375 C 3.097656 -1.164062 2.316406 -1.976562 1.765625 -3.03125 C 1.222656 -4.082031 0.953125 -5.328125 0.953125 -6.765625 C 0.953125 -8.160156 1.222656 -9.390625 1.765625 -10.453125 C 2.316406 -11.515625 3.085938 -12.34375 4.078125 -12.9375 C 5.066406 -13.53125 6.234375 -13.828125 7.578125 -13.828125 C 8.773438 -13.828125 9.859375 -13.570312 10.828125 -13.0625 C 11.796875 -12.550781 12.5625 -11.78125 13.125 -10.75 C 13.695312 -9.726562 13.984375 -8.441406 13.984375 -6.890625 L 13.984375 -5.859375 L 4.703125 -5.859375 L 4.703125 -5.84375 C 4.703125 -4.820312 4.976562 -4.019531 5.53125 -3.4375 C 6.09375 -2.851562 6.847656 -2.5625 7.796875 -2.5625 C 8.421875 -2.5625 8.960938 -2.691406 9.421875 -2.953125 C 9.890625 -3.222656 10.21875 -3.617188 10.40625 -4.140625 L 13.90625 -3.90625 C 13.644531 -2.632812 12.972656 -1.617188 11.890625 -0.859375 C 10.804688 -0.109375 9.421875 0.265625 7.734375 0.265625 Z M 4.703125 -8.203125 L 10.421875 -8.203125 C 10.421875 -9.015625 10.160156 -9.679688 9.640625 -10.203125 C 9.128906 -10.734375 8.460938 -11 7.640625 -11 C 6.796875 -11 6.101562 -10.722656 5.5625 -10.171875 C 5.03125 -9.628906 4.742188 -8.972656 4.703125 -8.203125 Z M 4.703125 -8.203125 "/></g></g><g style="fill:#ffffff;fill-opacity:1;"><g transform="translate(259.160931, 24.902537)"><path style="stroke:none" d="M 14.234375 -13.640625 L 9.453125 0 L 5.203125 0 L 0.421875 -13.640625 L 4.421875 -13.640625 L 7.25 -3.875 L 7.40625 -3.875 L 10.21875 -13.640625 Z M 14.234375 -13.640625 "/></g></g><g style="fill:#ffffff;fill-opacity:1;"><g transform="translate(272.075946, 24.902537)"><path style="stroke:none" d="M 5.40625 0.25 C 4.101562 0.25 3.019531 -0.0859375 2.15625 -0.765625 C 1.300781 -1.441406 0.875 -2.457031 0.875 -3.8125 C 0.875 -4.832031 1.113281 -5.628906 1.59375 -6.203125 C 2.070312 -6.785156 2.695312 -7.210938 3.46875 -7.484375 C 4.25 -7.753906 5.09375 -7.929688 6 -8.015625 C 7.175781 -8.128906 8.019531 -8.25 8.53125 -8.375 C 9.039062 -8.507812 9.296875 -8.796875 9.296875 -9.234375 L 9.296875 -9.296875 C 9.296875 -9.859375 9.117188 -10.289062 8.765625 -10.59375 C 8.421875 -10.90625 7.925781 -11.0625 7.28125 -11.0625 C 6.59375 -11.0625 6.046875 -10.910156 5.640625 -10.609375 C 5.242188 -10.316406 4.976562 -9.941406 4.84375 -9.484375 L 1.34375 -9.765625 C 1.601562 -11.015625 2.25 -12.003906 3.28125 -12.734375 C 4.320312 -13.460938 5.660156 -13.828125 7.296875 -13.828125 C 8.304688 -13.828125 9.25 -13.664062 10.125 -13.34375 C 11.007812 -13.019531 11.722656 -12.519531 12.265625 -11.84375 C 12.804688 -11.164062 13.078125 -10.285156 13.078125 -9.203125 L 13.078125 0 L 9.5 0 L 9.5 -1.890625 L 9.390625 -1.890625 C 9.054688 -1.253906 8.554688 -0.738281 7.890625 -0.34375 C 7.234375 0.0507812 6.40625 0.25 5.40625 0.25 Z M 6.484375 -2.359375 C 7.316406 -2.359375 8 -2.597656 8.53125 -3.078125 C 9.0625 -3.554688 9.328125 -4.15625 9.328125 -4.875 L 9.328125 -6.328125 C 9.179688 -6.222656 8.953125 -6.128906 8.640625 -6.046875 C 8.328125 -5.972656 7.992188 -5.910156 7.640625 -5.859375 C 7.285156 -5.804688 6.972656 -5.757812 6.703125 -5.71875 C 6.035156 -5.613281 5.5 -5.421875 5.09375 -5.140625 C 4.6875 -4.867188 4.484375 -4.46875 4.484375 -3.9375 C 4.484375 -3.414062 4.671875 -3.019531 5.046875 -2.75 C 5.421875 -2.488281 5.898438 -2.359375 6.484375 -2.359375 Z M 6.484375 -2.359375 "/></g></g><g style="fill:#ffffff;fill-opacity:1;"><g transform="translate(285.062079, 24.902537)"><path style="stroke:none" d="M 5.296875 -7.890625 L 5.296875 0 L 1.515625 0 L 1.515625 -13.640625 L 5.109375 -13.640625 L 5.109375 -11.234375 L 5.28125 -11.234375 C 5.582031 -12.023438 6.085938 -12.65625 6.796875 -13.125 C 7.503906 -13.59375 8.363281 -13.828125 9.375 -13.828125 C 10.800781 -13.828125 11.941406 -13.367188 12.796875 -12.453125 C 13.660156 -11.535156 14.09375 -10.28125 14.09375 -8.6875 L 14.09375 0 L 10.3125 0 L 10.3125 -8.015625 C 10.3125 -8.847656 10.09375 -9.5 9.65625 -9.96875 C 9.226562 -10.4375 8.632812 -10.671875 7.875 -10.671875 C 7.113281 -10.671875 6.492188 -10.425781 6.015625 -9.9375 C 5.535156 -9.457031 5.296875 -8.773438 5.296875 -7.890625 Z M 5.296875 -7.890625 "/></g></g></g></g></g><path style=" stroke:none;fill-rule:nonzero;fill:#ffffff;fill-opacity:1;" d="M 88.722656 0.0078125 C 79.019531 0.0078125 71.152344 6.910156 71.152344 16.640625 C 71.152344 6.910156 63.285156 0.0078125 53.582031 0.0078125 C 43.878906 0.0078125 36.011719 7.898438 36.011719 17.628906 C 36.011719 40.0625 71.152344 58.320312 71.152344 58.320312 C 71.152344 58.320312 106.292969 40.0625 106.292969 17.628906 C 106.292969 7.898438 98.425781 0.0078125 88.722656 0.0078125 Z M 88.722656 0.0078125 "/><g clip-rule="nonzero" clip-path="url(#8abda51076)"><path style=" stroke:none;fill-rule:nonzero;fill:#ffffff;fill-opacity:1;" d="M 23 49.601562 L 27.488281 42.265625 C 26.445312 41.605469 24.445312 40.765625 22.6875 42.46875 C 20.90625 44.195312 22.128906 47.699219 23 49.601562 Z M 17.652344 23.359375 L 18.386719 23.625 C 18.476562 23.65625 19.195312 23.929688 20.03125 24.566406 C 19.722656 17.773438 14.921875 16.59375 14.507812 17.054688 C 14.148438 17.453125 12.457031 30.710938 11.84375 35.585938 C 13.816406 30.789062 15.898438 26.054688 17.226562 24.011719 Z M 118.992188 43.453125 C 117.289062 41.691406 115.265625 42.464844 114.203125 43.09375 L 118.449219 50.570312 C 119.378906 48.695312 120.714844 45.234375 118.992188 43.453125 Z M 124.644531 24.519531 L 125.046875 25.183594 C 126.308594 27.269531 128.238281 32.070312 130.054688 36.925781 C 129.597656 32.03125 128.335938 18.726562 127.992188 18.316406 C 127.589844 17.84375 122.753906 18.867188 122.226562 25.648438 C 123.082031 25.039062 123.808594 24.789062 123.902344 24.757812 Z M 124.207031 25.695312 C 124.207031 25.695312 118.503906 27.550781 120.871094 34.582031 C 121.292969 35.835938 121.617188 36.898438 121.859375 37.816406 C 121.867188 37.824219 123.367188 42.433594 124.300781 45.359375 C 125.238281 48.285156 125.339844 50.574219 124.816406 52.054688 C 124.292969 53.527344 120.71875 60.203125 120.71875 60.203125 C 120.71875 60.203125 122.824219 54.890625 123.867188 51.9375 C 124.460938 50.269531 123.359375 46.5 122.289062 43.53125 C 122.15625 44.046875 121.972656 44.535156 121.785156 45.09375 C 121.21875 46.761719 119.773438 49.886719 118.980469 51.558594 C 120.835938 54.292969 120.765625 56.886719 120.765625 56.886719 L 120.382812 68.707031 C 120.382812 68.707031 119.882812 59.464844 119.785156 57.070312 C 119.683594 54.675781 117.898438 51.726562 117.898438 51.726562 L 113.460938 43.605469 C 113.460938 43.605469 110.785156 38.191406 108.289062 35.914062 C 108.289062 35.914062 104.238281 37.140625 106.152344 42.101562 C 108.066406 47.0625 108.066406 47.0625 108.066406 47.0625 L 111.894531 57.292969 C 111.894531 57.292969 112.289062 59.816406 112.125 61.710938 C 111.964844 63.605469 111.921875 65.59375 110.640625 66.675781 C 109.359375 67.757812 107.375 69.992188 106.984375 71 C 106.597656 72.003906 92.519531 75.625 92.519531 75.625 C 92.519531 75.625 104.253906 71.824219 105.46875 70.804688 C 106.679688 69.78125 107.566406 67.851562 109.761719 66.101562 C 110.691406 65.359375 111.296875 61.5625 111.089844 59.691406 C 110.980469 59.984375 110.6875 60.34375 110.273438 60.691406 C 110.238281 60.71875 110.199219 60.75 110.164062 60.777344 C 109.117188 61.601562 107.394531 62.304688 105.808594 61.71875 C 103.503906 60.871094 100.882812 61.847656 100.882812 61.847656 C 104.371094 59.921875 106.808594 61.222656 106.808594 61.222656 C 106.808594 61.222656 110.125 58.839844 110.898438 57.769531 L 107.277344 47.699219 C 106.242188 48.570312 104.378906 50.246094 102.875 52.21875 C 100.671875 55.109375 97.4375 56.617188 95.058594 58.300781 C 92.675781 59.988281 81.996094 67.261719 79.117188 72.332031 C 76.238281 77.40625 75.464844 80.703125 75.054688 85.5 C 74.644531 90.296875 75.214844 102.390625 76.117188 110.59375 C 76.378906 112.953125 76.46875 116.363281 76.464844 120.019531 L 98.429688 120.019531 C 97.871094 117.984375 95.730469 109.914062 95.464844 104.414062 C 95.15625 98.082031 95.121094 94.03125 103.363281 89.113281 C 111.605469 84.199219 120.097656 80.328125 123.304688 74.167969 C 126.507812 68.007812 132.730469 56.953125 133.390625 55.6875 C 134.050781 54.421875 134.632812 52.597656 133.871094 50.574219 C 133.453125 49.464844 127.039062 30.375 124.207031 25.695312 Z M 138.804688 23.121094 C 137.941406 22.765625 134.488281 23.894531 132.132812 28.496094 C 131.472656 30.914062 130.628906 34.832031 130.140625 37.160156 C 131.214844 40.046875 132.246094 42.941406 133.066406 45.277344 C 133.953125 42.125 138.132812 29.171875 138.75 27.378906 C 139.574219 24.988281 139.671875 23.476562 138.804688 23.121094 Z M 61.605469 72.636719 C 58.890625 67.46875 48.449219 59.851562 46.128906 58.089844 C 43.804688 56.328125 40.617188 54.714844 38.511719 51.753906 C 37.074219 49.734375 35.265625 48 34.257812 47.097656 L 30.3125 57.039062 C 31.050781 58.136719 34.289062 60.625 34.289062 60.625 C 34.289062 60.625 36.765625 59.40625 40.191406 61.445312 C 40.191406 61.445312 37.605469 60.382812 35.269531 61.15625 C 33.667969 61.6875 31.96875 60.929688 30.949219 60.074219 C 30.914062 60.042969 30.878906 60.011719 30.84375 59.980469 C 30.4375 59.621094 30.160156 59.25 30.058594 58.957031 C 29.789062 60.820312 30.273438 64.636719 31.179688 65.40625 C 33.316406 67.226562 34.140625 69.183594 35.316406 70.246094 C 36.496094 71.308594 48.105469 75.488281 48.105469 75.488281 C 48.105469 75.488281 34.148438 71.410156 33.792969 70.390625 C 33.4375 69.371094 31.527344 67.074219 30.28125 65.953125 C 29.035156 64.828125 29.058594 62.835938 28.957031 60.941406 C 28.855469 59.042969 29.332031 56.53125 29.332031 56.53125 L 33.488281 46.433594 C 33.488281 46.433594 33.488281 46.433594 35.5625 41.535156 C 37.636719 36.640625 33.628906 35.28125 33.628906 35.28125 C 31.0625 37.480469 28.210938 42.804688 28.210938 42.804688 L 23.511719 50.773438 C 23.511719 50.773438 21.632812 53.664062 21.453125 56.054688 C 21.277344 58.445312 20.480469 67.664062 20.480469 67.664062 L 20.480469 55.835938 C 20.480469 55.835938 20.492188 53.242188 22.433594 50.570312 C 21.695312 48.875 20.355469 45.703125 19.84375 44.019531 C 19.671875 43.453125 19.507812 42.960938 19.390625 42.4375 C 18.222656 45.371094 17 49.105469 17.535156 50.789062 C 18.484375 53.777344 20.417969 59.152344 20.417969 59.152344 C 20.417969 59.152344 17.0625 52.367188 16.585938 50.875 C 16.113281 49.378906 16.289062 47.09375 17.320312 44.199219 C 18.347656 41.308594 19.996094 36.753906 20 36.742188 C 20.277344 35.832031 20.636719 34.78125 21.097656 33.542969 C 23.691406 26.589844 18.050781 24.550781 18.050781 24.550781 C 15.066406 29.136719 8.039062 48.007812 7.585938 49.101562 C 6.757812 51.101562 7.28125 52.945312 7.902344 54.230469 C 8.519531 55.511719 14.375 66.765625 17.382812 73.027344 C 20.386719 79.289062 28.75 83.433594 36.824219 88.617188 C 44.902344 93.796875 44.738281 97.84375 44.226562 104.167969 C 43.746094 110.070312 41.003906 118.886719 40.644531 120.019531 L 62.722656 120.019531 C 62.839844 116.503906 63.039062 113.242188 63.363281 110.96875 C 64.53125 102.804688 65.492188 90.734375 65.238281 85.925781 C 64.980469 81.117188 64.316406 77.800781 61.605469 72.636719 Z M 11.75 35.816406 C 11.332031 33.476562 10.617188 29.53125 10.039062 27.09375 C 7.835938 22.414062 4.417969 21.175781 3.542969 21.503906 C 2.667969 21.832031 2.714844 23.339844 3.460938 25.761719 C 4.019531 27.574219 7.777344 40.652344 8.558594 43.835938 C 9.457031 41.527344 10.578125 38.667969 11.75 35.816406 Z M 11.75 35.816406 "/></g><g clip-rule="nonzero" clip-path="url(#e0cec7399e)"><path style=" stroke:none;fill-rule:nonzero;fill:#000000;fill-opacity:1;" d="M 46.503906 42.128906 C 46.875 42.535156 47.28125 42.90625 47.714844 43.238281 C 48.097656 43.027344 48.429688 42.757812 48.722656 42.4375 C 49.355469 41.910156 49.773438 41.25 49.976562 40.457031 C 50.070312 39.847656 50.054688 39.242188 49.929688 38.636719 C 49.714844 37.847656 49.003906 37.363281 48.539062 36.738281 C 48.476562 36.25 48.453125 35.757812 48.472656 35.265625 C 48.441406 32.148438 48.449219 29.03125 48.441406 25.914062 C 48.417969 25.640625 48.492188 25.394531 48.660156 25.179688 C 48.699219 25.152344 48.738281 25.132812 48.78125 25.117188 C 48.820312 25.101562 48.867188 25.089844 48.910156 25.085938 C 48.957031 25.082031 49 25.082031 49.042969 25.089844 C 49.089844 25.097656 49.132812 25.109375 49.175781 25.128906 C 49.214844 25.144531 49.253906 25.167969 49.289062 25.195312 C 49.324219 25.222656 49.355469 25.253906 49.382812 25.289062 C 49.410156 25.324219 49.433594 25.363281 49.449219 25.40625 C 49.46875 25.445312 49.480469 25.488281 49.484375 25.535156 C 49.511719 27.285156 49.492188 29.039062 49.496094 30.792969 C 49.410156 31.824219 49.5 32.839844 49.761719 33.839844 C 49.914062 34.324219 50.140625 34.769531 50.445312 35.179688 C 50.75 35.589844 51.109375 35.9375 51.53125 36.226562 C 51.527344 35.652344 51.394531 35.089844 51.34375 34.519531 C 51.152344 33.109375 51.328125 31.746094 51.871094 30.429688 C 52.015625 30.160156 52.179688 29.820312 52.519531 29.765625 C 52.558594 29.761719 52.601562 29.761719 52.640625 29.765625 C 52.679688 29.773438 52.71875 29.78125 52.757812 29.796875 C 52.792969 29.8125 52.832031 29.828125 52.863281 29.855469 C 52.898438 29.875 52.925781 29.902344 52.953125 29.933594 C 52.980469 29.964844 53 30 53.019531 30.035156 C 53.035156 30.070312 53.050781 30.109375 53.058594 30.148438 C 53.066406 30.1875 53.070312 30.226562 53.066406 30.269531 C 53.066406 30.308594 53.058594 30.347656 53.046875 30.386719 C 52.925781 30.828125 52.710938 31.242188 52.609375 31.6875 C 52.457031 32.34375 52.40625 33.007812 52.472656 33.679688 C 52.636719 35.894531 52.703125 38.117188 52.714844 40.339844 C 52.730469 40.90625 52.6875 41.480469 52.757812 42.046875 C 52.769531 42.136719 52.8125 42.210938 52.886719 42.269531 C 52.957031 42.328125 53.039062 42.351562 53.128906 42.347656 C 53.632812 42.347656 54.132812 42.359375 54.632812 42.335938 C 54.855469 42.226562 54.882812 41.957031 54.886719 41.742188 C 54.875 40.835938 54.964844 39.941406 55.152344 39.058594 C 55.269531 38.328125 55.917969 37.882812 56.445312 37.441406 C 57.140625 36.878906 57.78125 36.257812 58.363281 35.582031 C 58.621094 35.273438 58.84375 34.941406 59.03125 34.585938 C 59.21875 34.230469 59.367188 33.859375 59.472656 33.472656 C 59.582031 33.085938 59.644531 32.695312 59.671875 32.292969 C 59.695312 31.890625 59.675781 31.496094 59.613281 31.097656 C 59.492188 30.617188 59.296875 30.164062 59.027344 29.742188 C 58.945312 29.621094 58.941406 29.496094 59.015625 29.371094 C 59.070312 29.277344 59.148438 29.199219 59.242188 29.144531 C 59.335938 29.089844 59.4375 29.0625 59.546875 29.0625 C 59.660156 29.0625 59.761719 29.089844 59.859375 29.140625 C 59.953125 29.195312 60.027344 29.273438 60.082031 29.367188 C 60.292969 29.742188 60.457031 30.132812 60.578125 30.542969 C 60.703125 30.953125 60.773438 31.375 60.800781 31.800781 C 60.828125 32.230469 60.808594 32.652344 60.738281 33.078125 C 60.671875 33.5 60.558594 33.910156 60.394531 34.308594 C 59.9375 35.421875 59.289062 36.410156 58.449219 37.273438 C 58.753906 37.351562 59.066406 37.40625 59.378906 37.441406 C 59.40625 37.714844 59.460938 37.980469 59.542969 38.238281 C 59.601562 38.339844 59.683594 38.414062 59.789062 38.46875 C 59.890625 38.519531 60 38.542969 60.117188 38.535156 C 60.234375 38.523438 60.339844 38.484375 60.433594 38.417969 C 60.527344 38.347656 60.597656 38.257812 60.640625 38.152344 C 60.664062 37.734375 60.644531 37.320312 60.582031 36.910156 C 60.992188 36.753906 61.417969 36.640625 61.835938 36.5 C 61.8125 36.914062 61.867188 37.320312 62.003906 37.714844 C 62.070312 37.816406 62.160156 37.894531 62.269531 37.949219 C 62.382812 38 62.5 38.015625 62.621094 38 C 62.742188 37.984375 62.851562 37.9375 62.945312 37.859375 C 63.039062 37.78125 63.105469 37.683594 63.144531 37.566406 C 63.175781 37.109375 63.105469 36.652344 63.117188 36.195312 C 65.332031 36.214844 67.550781 36.167969 69.769531 36.230469 C 69.699219 35.703125 69.597656 35.183594 69.515625 34.660156 C 69.222656 33.605469 69.203125 32.542969 69.449219 31.480469 C 69.574219 31.140625 69.730469 30.730469 70.117188 30.621094 C 70.203125 30.601562 70.285156 30.601562 70.371094 30.621094 C 70.457031 30.644531 70.53125 30.683594 70.59375 30.742188 C 70.660156 30.796875 70.707031 30.867188 70.738281 30.949219 C 70.769531 31.027344 70.78125 31.109375 70.769531 31.195312 C 70.691406 31.574219 70.386719 31.882812 70.40625 32.28125 C 70.480469 33.347656 70.605469 34.410156 70.789062 35.464844 C 71.050781 37.941406 71.167969 40.433594 71.230469 42.921875 C 71.210938 43.175781 71.261719 43.414062 71.390625 43.632812 C 71.859375 43.710938 72.34375 43.675781 72.8125 43.734375 C 73.097656 43.785156 73.28125 43.484375 73.257812 43.234375 C 73.332031 41.53125 73.503906 39.839844 73.769531 38.15625 C 73.957031 36.992188 74.070312 35.816406 74.363281 34.671875 C 74.636719 33.855469 74.78125 33.023438 74.800781 32.164062 C 74.796875 31.742188 74.414062 31.371094 74.574219 30.9375 C 74.59375 30.898438 74.617188 30.855469 74.644531 30.820312 C 74.671875 30.785156 74.707031 30.75 74.742188 30.722656 C 74.78125 30.695312 74.820312 30.671875 74.863281 30.65625 C 74.90625 30.636719 74.949219 30.625 74.996094 30.621094 C 75.042969 30.613281 75.089844 30.613281 75.136719 30.621094 C 75.179688 30.625 75.226562 30.636719 75.269531 30.652344 C 75.3125 30.671875 75.351562 30.695312 75.390625 30.722656 C 75.425781 30.75 75.460938 30.78125 75.488281 30.820312 C 75.773438 31.230469 75.914062 31.683594 75.910156 32.179688 C 75.863281 33.535156 75.609375 34.847656 75.148438 36.121094 C 75.949219 35.878906 76.617188 35.441406 77.160156 34.8125 C 77.824219 34.117188 78.273438 33.304688 78.503906 32.375 C 78.863281 31.105469 79.050781 29.789062 79.394531 28.511719 C 79.585938 27.476562 79.960938 26.507812 80.523438 25.613281 C 80.765625 25.261719 81.070312 24.972656 81.4375 24.753906 C 81.808594 24.535156 82.207031 24.402344 82.632812 24.355469 C 83.667969 24.253906 84.632812 24.761719 85.65625 24.78125 C 86.0625 24.824219 86.453125 24.777344 86.835938 24.632812 C 87.21875 24.492188 87.546875 24.273438 87.820312 23.976562 C 88.011719 23.730469 88.132812 23.460938 88.1875 23.15625 C 88.242188 22.851562 88.21875 22.554688 88.121094 22.261719 C 87.890625 21.566406 87.277344 21.089844 86.996094 20.421875 C 86.738281 19.589844 86.644531 18.742188 86.71875 17.878906 C 87.117188 17.984375 87.523438 18 87.929688 17.921875 C 88.335938 17.84375 88.707031 17.683594 89.039062 17.4375 C 89.132812 17.375 89.210938 17.296875 89.277344 17.207031 C 89.339844 17.117188 89.386719 17.015625 89.417969 16.910156 C 89.445312 16.800781 89.453125 16.691406 89.445312 16.582031 C 89.433594 16.472656 89.40625 16.363281 89.355469 16.265625 C 89.160156 16.035156 88.921875 15.863281 88.644531 15.753906 C 88.363281 15.640625 88.070312 15.597656 87.769531 15.628906 C 87.316406 15.699219 86.867188 15.816406 86.433594 15.980469 C 86.609375 15.683594 86.863281 15.441406 87.007812 15.128906 C 87.265625 14.574219 87.359375 13.996094 87.285156 13.386719 C 87.277344 13.226562 87.238281 13.078125 87.164062 12.9375 C 87.089844 12.796875 86.988281 12.675781 86.859375 12.578125 C 86.804688 12.546875 86.742188 12.527344 86.675781 12.527344 C 86.609375 12.523438 86.546875 12.539062 86.488281 12.566406 C 86.429688 12.597656 86.382812 12.640625 86.347656 12.695312 C 86.308594 12.75 86.289062 12.8125 86.285156 12.875 C 86.289062 13.148438 86.242188 13.410156 86.140625 13.664062 C 86.042969 13.917969 85.898438 14.140625 85.714844 14.339844 C 85.46875 14.636719 85.167969 14.863281 84.8125 15.023438 C 84.460938 15.183594 84.089844 15.257812 83.703125 15.25 C 82.75 15.121094 81.796875 15.132812 80.847656 15.28125 C 80.433594 15.125 80.058594 14.902344 79.726562 14.613281 C 79.390625 14.324219 79.117188 13.984375 78.90625 13.597656 C 78.746094 13.273438 78.953125 12.8125 78.621094 12.570312 C 78.285156 12.410156 77.976562 12.734375 77.890625 13.03125 C 77.8125 13.277344 77.769531 13.53125 77.761719 13.792969 C 77.75 14.050781 77.777344 14.304688 77.835938 14.558594 C 77.894531 14.808594 77.988281 15.050781 78.113281 15.277344 C 78.238281 15.503906 78.390625 15.710938 78.570312 15.898438 C 78.394531 15.921875 78.226562 15.894531 78.0625 15.828125 C 77.773438 15.710938 77.472656 15.648438 77.160156 15.644531 C 76.847656 15.640625 76.546875 15.695312 76.253906 15.8125 C 76.089844 15.875 75.949219 15.972656 75.828125 16.105469 C 75.710938 16.238281 75.632812 16.390625 75.589844 16.5625 C 75.585938 16.75 75.625 16.925781 75.707031 17.089844 C 75.792969 17.253906 75.914062 17.390625 76.066406 17.496094 C 76.363281 17.707031 76.691406 17.84375 77.046875 17.910156 C 77.40625 17.972656 77.761719 17.957031 78.113281 17.863281 C 77.121094 18.875 75.949219 19.597656 74.597656 20.039062 C 72.746094 20.660156 70.84375 20.996094 68.890625 21.050781 C 66.292969 21.179688 63.714844 20.992188 61.167969 20.488281 C 59.847656 20.210938 58.550781 19.839844 57.246094 19.5 C 56.160156 19.203125 55.050781 19.097656 53.925781 19.1875 C 52.453125 19.328125 51.089844 19.785156 49.835938 20.5625 C 49.15625 21 48.578125 21.542969 48.101562 22.191406 C 47.621094 22.839844 47.273438 23.550781 47.058594 24.324219 C 46.847656 25.410156 46.777344 26.503906 46.847656 27.605469 C 46.859375 30.558594 46.847656 33.511719 46.863281 36.464844 C 46.851562 36.613281 46.890625 36.796875 46.769531 36.917969 C 46.390625 37.289062 46.0625 37.699219 45.78125 38.144531 C 45.574219 38.585938 45.492188 39.050781 45.53125 39.539062 C 45.503906 40.015625 45.558594 40.484375 45.695312 40.945312 C 45.886719 41.394531 46.15625 41.789062 46.503906 42.128906 Z M 46.503906 42.128906 "/></g><g clip-rule="nonzero" clip-path="url(#aeb5dedd93)"><path style=" stroke:none;fill-rule:nonzero;fill:#000000;fill-opacity:1;" d="M 87.664062 35.078125 C 86.582031 35.78125 85.410156 36.28125 84.152344 36.582031 C 83.335938 36.773438 82.65625 37.191406 82.117188 37.828125 C 81.980469 38.046875 81.910156 38.285156 81.914062 38.542969 C 81.917969 38.796875 81.988281 39.035156 82.132812 39.25 C 82.789062 40.125 83.609375 40.796875 84.597656 41.273438 C 84.640625 41.796875 84.757812 42.304688 84.953125 42.792969 C 86.398438 43.042969 87.820312 43.375 89.226562 43.796875 C 89.3125 43.1875 89.515625 42.621094 89.835938 42.09375 C 90.460938 41.496094 91.15625 40.988281 91.914062 40.570312 C 92.308594 40.28125 92.636719 39.9375 92.894531 39.527344 C 93.152344 39.117188 93.328125 38.671875 93.414062 38.199219 C 93.546875 36.851562 93.363281 35.546875 92.863281 34.289062 C 92.777344 34.078125 92.71875 33.859375 92.691406 33.636719 C 92.664062 33.410156 92.664062 33.183594 92.695312 32.957031 C 92.726562 32.734375 92.789062 32.515625 92.875 32.304688 C 92.964844 32.09375 93.078125 31.898438 93.21875 31.71875 C 93.453125 31.460938 93.738281 31.273438 94.070312 31.15625 C 94.398438 31.042969 94.738281 31.007812 95.085938 31.058594 C 95.070312 30.925781 95.042969 30.792969 95.003906 30.664062 C 94.964844 30.53125 94.914062 30.40625 94.851562 30.285156 C 94.789062 30.164062 94.714844 30.046875 94.632812 29.941406 C 94.550781 29.832031 94.457031 29.734375 94.355469 29.640625 C 94.253906 29.550781 94.148438 29.46875 94.03125 29.394531 C 93.914062 29.324219 93.789062 29.261719 93.664062 29.210938 C 93.535156 29.160156 93.40625 29.121094 93.269531 29.09375 C 93.136719 29.070312 93 29.054688 92.863281 29.050781 C 92.792969 28.929688 92.695312 28.835938 92.574219 28.765625 C 92.449219 28.699219 92.320312 28.667969 92.179688 28.671875 C 92.070312 28.6875 91.96875 28.726562 91.875 28.78125 C 91.78125 28.839844 91.703125 28.910156 91.632812 28.996094 C 91.566406 29.082031 91.519531 29.179688 91.488281 29.28125 C 91.457031 29.386719 91.445312 29.492188 91.457031 29.601562 C 91.476562 29.859375 91.566406 30.09375 91.71875 30.300781 C 91.050781 30.535156 90.5 30.925781 90.0625 31.480469 C 89.609375 32.1875 89.21875 32.929688 88.902344 33.707031 C 88.59375 34.257812 88.183594 34.714844 87.664062 35.078125 Z M 87.664062 35.078125 "/></g><path style=" stroke:none;fill-rule:nonzero;fill:#000000;fill-opacity:1;" d="M 60.773438 40.082031 C 60.695312 40.097656 60.539062 40.125 60.460938 40.136719 C 60.066406 40.636719 59.859375 41.199219 59.84375 41.832031 C 59.835938 41.996094 59.753906 42.238281 59.949219 42.324219 C 60.285156 42.394531 60.621094 42.398438 60.957031 42.332031 C 61.039062 42.039062 61.058594 41.738281 61.019531 41.4375 C 60.964844 40.984375 61.066406 40.472656 60.773438 40.082031 Z M 60.773438 40.082031 "/><path style=" stroke:none;fill-rule:nonzero;fill:#000000;fill-opacity:1;" d="M 81.265625 37.46875 C 81.535156 37 81.894531 36.613281 82.339844 36.300781 C 82.785156 35.992188 83.277344 35.792969 83.8125 35.699219 C 84.550781 35.535156 85.277344 35.328125 85.996094 35.101562 C 85.242188 34.640625 84.59375 34.0625 84.046875 33.371094 C 83.433594 32.34375 82.902344 31.277344 82.449219 30.171875 C 82.09375 30.347656 81.777344 30.582031 81.503906 30.867188 C 81.226562 31.152344 81.003906 31.472656 80.839844 31.832031 C 81.300781 32.402344 81.824219 32.921875 82.238281 33.527344 C 82.167969 33.613281 82.097656 33.695312 82.027344 33.78125 C 81.460938 33.386719 80.953125 32.910156 80.40625 32.484375 C 80.203125 33.066406 80.105469 33.660156 80.109375 34.273438 C 80.558594 34.539062 81.078125 34.648438 81.542969 34.886719 C 81.699219 34.953125 81.789062 35.070312 81.816406 35.238281 C 81.257812 35.164062 80.699219 35.105469 80.140625 35.074219 C 80.277344 35.984375 80.652344 36.78125 81.265625 37.46875 Z M 81.265625 37.46875 "/><path style=" stroke:none;fill-rule:nonzero;fill:#000000;fill-opacity:1;" d="M 78.648438 44.90625 C 78.863281 44.953125 79.199219 45.1875 79.332031 44.910156 C 79.511719 43.894531 79.601562 42.867188 79.601562 41.835938 C 79.625 41.117188 79.507812 40.421875 79.246094 39.75 C 78.988281 39.078125 78.609375 38.484375 78.109375 37.964844 C 77.878906 37.769531 77.558594 37.496094 77.246094 37.675781 C 77.179688 37.714844 77.121094 37.765625 77.078125 37.828125 C 77.035156 37.890625 77.007812 37.957031 76.996094 38.035156 C 76.980469 38.109375 76.984375 38.183594 77.003906 38.257812 C 77.027344 38.332031 77.0625 38.398438 77.113281 38.457031 C 77.492188 39.019531 77.777344 39.632812 77.96875 40.285156 C 78.234375 41.738281 78.214844 43.183594 77.910156 44.628906 C 78.039062 44.90625 78.414062 44.785156 78.648438 44.90625 Z M 78.648438 44.90625 "/><g clip-rule="nonzero" clip-path="url(#be83cd0a20)"><path style=" stroke:none;fill-rule:nonzero;fill:#000000;fill-opacity:1;" d="M 93.730469 32.207031 C 93.53125 32.417969 93.402344 32.664062 93.347656 32.945312 C 93.292969 33.230469 93.320312 33.503906 93.425781 33.773438 C 93.457031 33.84375 93.5 33.90625 93.558594 33.957031 C 93.617188 34.007812 93.683594 34.042969 93.757812 34.0625 C 93.835938 34.082031 93.910156 34.085938 93.988281 34.070312 C 94.0625 34.054688 94.132812 34.023438 94.195312 33.976562 C 94.4375 33.820312 94.351562 33.5 94.410156 33.265625 C 94.441406 33.042969 94.535156 32.84375 94.683594 32.675781 C 94.820312 32.652344 94.945312 32.613281 95.070312 32.558594 C 95.097656 32.527344 95.121094 32.492188 95.140625 32.453125 C 95.15625 32.414062 95.164062 32.375 95.160156 32.332031 C 95.160156 32.289062 95.148438 32.25 95.132812 32.210938 C 95.113281 32.171875 95.085938 32.136719 95.054688 32.109375 C 94.953125 32.046875 94.84375 32.003906 94.730469 31.976562 C 94.613281 31.949219 94.496094 31.941406 94.378906 31.949219 C 94.257812 31.957031 94.144531 31.984375 94.035156 32.027344 C 93.921875 32.074219 93.824219 32.132812 93.730469 32.207031 Z M 93.730469 32.207031 "/></g><path style=" stroke:none;fill-rule:nonzero;fill:#000000;fill-opacity:1;" d="M 75.816406 41.539062 C 75.765625 41.5 75.710938 41.476562 75.648438 41.464844 C 75.585938 41.457031 75.527344 41.460938 75.464844 41.480469 C 75.40625 41.5 75.355469 41.53125 75.3125 41.578125 C 75.269531 41.621094 75.242188 41.675781 75.222656 41.734375 C 75.269531 42.210938 75.378906 42.671875 75.558594 43.117188 C 75.65625 43.457031 75.667969 43.816406 75.78125 44.15625 C 76.113281 44.308594 76.460938 44.359375 76.824219 44.304688 C 76.914062 43.796875 76.855469 43.308594 76.636719 42.835938 C 76.488281 42.324219 76.214844 41.890625 75.816406 41.539062 Z M 75.816406 41.539062 "/><path style=" stroke:none;fill-rule:nonzero;fill:#000000;fill-opacity:1;" d="M 58.058594 37.886719 C 57.492188 38.367188 56.886719 38.792969 56.238281 39.160156 C 56.09375 40.078125 56.03125 41.003906 56.046875 41.933594 C 56.039062 41.984375 56.042969 42.039062 56.058594 42.09375 C 56.074219 42.144531 56.101562 42.191406 56.140625 42.230469 C 56.179688 42.269531 56.222656 42.300781 56.277344 42.320312 C 56.328125 42.335938 56.382812 42.34375 56.4375 42.335938 C 56.90625 42.335938 57.378906 42.355469 57.847656 42.328125 C 58.109375 42.269531 58.105469 41.941406 58.105469 41.730469 C 58.078125 40.449219 58.125 39.164062 58.058594 37.886719 Z M 58.058594 37.886719 "/><path style=" stroke:none;fill-rule:nonzero;fill:#000000;fill-opacity:1;" d="M 65.472656 38.613281 C 64.921875 38.644531 64.421875 38.820312 63.972656 39.140625 C 63.425781 39.511719 62.980469 39.976562 62.636719 40.539062 C 62.292969 41.097656 62.078125 41.703125 61.996094 42.351562 C 62.453125 42.382812 62.910156 42.386719 63.367188 42.355469 C 63.488281 42.195312 63.578125 42.019531 63.632812 41.824219 C 63.796875 41.378906 64.03125 40.96875 64.335938 40.601562 C 64.640625 40.230469 64.996094 39.921875 65.40625 39.671875 C 65.601562 39.542969 65.855469 39.449219 65.945312 39.214844 C 65.976562 38.941406 65.792969 38.578125 65.472656 38.613281 Z M 65.472656 38.613281 "/><path style=" stroke:none;fill-rule:nonzero;fill:#000000;fill-opacity:1;" d="M 90.496094 45.710938 C 90.035156 45.554688 89.574219 45.410156 89.109375 45.265625 C 86.761719 44.546875 84.355469 44.03125 81.953125 43.53125 C 81.789062 43.488281 81.628906 43.5 81.476562 43.566406 C 81.242188 43.730469 81.070312 43.941406 80.957031 44.203125 C 80.84375 44.464844 80.8125 44.738281 80.855469 45.019531 C 80.863281 45.144531 80.910156 45.257812 80.996094 45.355469 C 81.082031 45.453125 81.191406 45.511719 81.316406 45.53125 C 82.289062 45.828125 83.28125 46.074219 84.257812 46.347656 C 85.570312 46.726562 86.878906 47.144531 88.167969 47.589844 C 89.109375 46.851562 89.617188 46.441406 90.496094 45.710938 Z M 90.496094 45.710938 "/><path style=" stroke:none;fill-rule:nonzero;fill:#000000;fill-opacity:1;" d="M 86.589844 48.796875 C 83.085938 47.660156 79.527344 46.710938 75.914062 45.957031 C 71.445312 45.015625 66.929688 44.394531 62.367188 44.09375 C 59.476562 43.898438 56.582031 43.867188 53.6875 44 C 52.972656 44.042969 52.078125 44.128906 51.144531 44.234375 C 52.238281 45.207031 52.875 45.734375 54.023438 46.652344 C 57.273438 46.480469 60.523438 46.542969 63.773438 46.84375 C 66.316406 47.082031 68.859375 47.347656 71.378906 47.75 C 75.625 48.414062 79.800781 49.375 83.90625 50.644531 L 84.007812 50.683594 C 85.046875 49.957031 85.605469 49.542969 86.589844 48.796875 Z M 86.589844 48.796875 "/><path style=" stroke:none;fill-rule:nonzero;fill:#000000;fill-opacity:1;" d="M 82.164062 51.964844 C 80.339844 51.386719 78.554688 50.875 77.132812 50.570312 C 74.832031 50.058594 72.523438 49.589844 70.183594 49.28125 C 65.511719 48.535156 56.082031 48.269531 56.082031 48.269531 C 57.46875 49.335938 58.253906 49.917969 59.675781 50.90625 C 60.15625 50.925781 60.640625 50.953125 61.125 50.984375 C 63.75 51.152344 66.375 51.375 68.980469 51.757812 C 70.972656 52.007812 72.945312 52.390625 74.917969 52.765625 C 76.421875 53.058594 77.910156 53.417969 79.394531 53.796875 C 80.496094 53.09375 81.097656 52.691406 82.164062 51.964844 Z M 82.164062 51.964844 "/><g clip-rule="nonzero" clip-path="url(#5e308ff167)"><path style=" stroke:none;fill-rule:nonzero;fill:#000000;fill-opacity:1;" d="M 77.417969 55.035156 C 75.035156 54.464844 72.621094 54 70.183594 53.644531 C 67.605469 53.238281 65.015625 52.953125 62.417969 52.78125 C 64.320312 54.074219 65.425781 54.765625 67.457031 55.949219 C 68.421875 56.058594 69.320312 56.175781 70.085938 56.308594 C 70.085938 56.308594 71.605469 56.628906 73.835938 57.15625 C 75.261719 56.34375 76.042969 55.878906 77.417969 55.035156 Z M 77.417969 55.035156 "/></g><g style="fill:#ff009d;fill-opacity:1;"><g transform="translate(0.309136, 180.344823)"><path style="stroke:none" d="M 43.28125 -46.875 L 43.28125 0 L 34.71875 0 L 14.328125 -29.5 L 13.984375 -29.5 L 13.984375 0 L 4.078125 0 L 4.078125 -46.875 L 12.765625 -46.875 L 33 -17.390625 L 33.421875 -17.390625 L 33.421875 -46.875 Z M 43.28125 -46.875 "/></g></g><g style="fill:#ff009d;fill-opacity:1;"><g transform="translate(42.45913, 180.344823)"><path style="stroke:none" d="M 13.921875 0.65625 C 10.554688 0.65625 7.769531 -0.21875 5.5625 -1.96875 C 3.351562 -3.71875 2.25 -6.332031 2.25 -9.8125 C 2.25 -12.4375 2.863281 -14.492188 4.09375 -15.984375 C 5.332031 -17.484375 6.953125 -18.582031 8.953125 -19.28125 C 10.960938 -19.976562 13.128906 -20.429688 15.453125 -20.640625 C 18.503906 -20.953125 20.6875 -21.273438 22 -21.609375 C 23.3125 -21.941406 23.96875 -22.671875 23.96875 -23.796875 L 23.96875 -23.9375 C 23.96875 -25.382812 23.507812 -26.503906 22.59375 -27.296875 C 21.6875 -28.097656 20.40625 -28.5 18.75 -28.5 C 16.988281 -28.5 15.585938 -28.113281 14.546875 -27.34375 C 13.515625 -26.582031 12.832031 -25.613281 12.5 -24.4375 L 3.484375 -25.171875 C 4.148438 -28.378906 5.8125 -30.921875 8.46875 -32.796875 C 11.132812 -34.671875 14.578125 -35.609375 18.796875 -35.609375 C 21.398438 -35.609375 23.835938 -35.195312 26.109375 -34.375 C 28.390625 -33.550781 30.226562 -32.265625 31.625 -30.515625 C 33.019531 -28.773438 33.71875 -26.507812 33.71875 -23.71875 L 33.71875 0 L 24.46875 0 L 24.46875 -4.875 L 24.1875 -4.875 C 23.332031 -3.238281 22.054688 -1.90625 20.359375 -0.875 C 18.660156 0.144531 16.515625 0.65625 13.921875 0.65625 Z M 16.703125 -6.0625 C 18.835938 -6.0625 20.59375 -6.679688 21.96875 -7.921875 C 23.34375 -9.171875 24.03125 -10.71875 24.03125 -12.5625 L 24.03125 -16.296875 C 23.644531 -16.035156 23.050781 -15.804688 22.25 -15.609375 C 21.457031 -15.410156 20.601562 -15.238281 19.6875 -15.09375 C 18.78125 -14.945312 17.96875 -14.820312 17.25 -14.71875 C 15.539062 -14.46875 14.164062 -13.984375 13.125 -13.265625 C 12.082031 -12.554688 11.5625 -11.515625 11.5625 -10.140625 C 11.5625 -8.796875 12.046875 -7.78125 13.015625 -7.09375 C 13.984375 -6.40625 15.210938 -6.0625 16.703125 -6.0625 Z M 16.703125 -6.0625 "/></g></g><g style="fill:#ff009d;fill-opacity:1;"><g transform="translate(73.349737, 180.344823)"><path style="stroke:none" d="M 9.5625 13.6875 C 8.175781 13.6875 6.988281 13.566406 6 13.328125 C 5.019531 13.097656 4.253906 12.859375 3.703125 12.609375 L 5.90625 5.0625 C 7.625 5.582031 9.078125 5.71875 10.265625 5.46875 C 11.453125 5.226562 12.382812 4.304688 13.0625 2.703125 L 13.703125 1 L 1.09375 -35.15625 L 11.359375 -35.15625 L 18.625 -9.34375 L 19 -9.34375 L 26.34375 -35.15625 L 36.671875 -35.15625 L 22.9375 4.03125 C 21.945312 6.832031 20.363281 9.140625 18.1875 10.953125 C 16.007812 12.773438 13.132812 13.6875 9.5625 13.6875 Z M 9.5625 13.6875 "/></g></g><g style="fill:#ff009d;fill-opacity:1;"><g transform="translate(106.986739, 180.344823)"><path style="stroke:none" d="M 3.890625 0 L 3.890625 -35.15625 L 13.640625 -35.15625 L 13.640625 0 Z M 8.796875 -39.6875 C 7.359375 -39.6875 6.117188 -40.171875 5.078125 -41.140625 C 4.046875 -42.109375 3.53125 -43.269531 3.53125 -44.625 C 3.53125 -45.988281 4.046875 -47.148438 5.078125 -48.109375 C 6.117188 -49.066406 7.359375 -49.546875 8.796875 -49.546875 C 10.242188 -49.546875 11.484375 -49.066406 12.515625 -48.109375 C 13.554688 -47.148438 14.078125 -45.988281 14.078125 -44.625 C 14.078125 -43.269531 13.554688 -42.109375 12.515625 -41.140625 C 11.484375 -40.171875 10.242188 -39.6875 8.796875 -39.6875 Z M 8.796875 -39.6875 "/></g></g><g style="fill:#ffffff;fill-opacity:1;"><g transform="translate(119.296772, 180.344823)"><path style="stroke:none" d=""/></g></g><g style="fill:#ffffff;fill-opacity:1;"><g transform="translate(129.019168, 180.344823)"><path style="stroke:none" d="M 20.6875 0 L 4.078125 0 L 4.078125 -46.875 L 20.828125 -46.875 C 25.546875 -46.875 29.609375 -45.9375 33.015625 -44.0625 C 36.421875 -42.195312 39.039062 -39.515625 40.875 -36.015625 C 42.707031 -32.523438 43.625 -28.347656 43.625 -23.484375 C 43.625 -18.597656 42.703125 -14.398438 40.859375 -10.890625 C 39.023438 -7.378906 36.394531 -4.6875 32.96875 -2.8125 C 29.539062 -0.9375 25.445312 0 20.6875 0 Z M 13.984375 -8.484375 L 20.28125 -8.484375 C 24.6875 -8.484375 28.03125 -9.671875 30.3125 -12.046875 C 32.59375 -14.429688 33.734375 -18.242188 33.734375 -23.484375 C 33.734375 -28.679688 32.59375 -32.460938 30.3125 -34.828125 C 28.03125 -37.203125 24.691406 -38.390625 20.296875 -38.390625 L 13.984375 -38.390625 Z M 13.984375 -8.484375 "/></g></g><g style="fill:#ffffff;fill-opacity:1;"><g transform="translate(170.665701, 180.344823)"><path style="stroke:none" d="M 3.890625 0 L 3.890625 -35.15625 L 13.640625 -35.15625 L 13.640625 0 Z M 8.796875 -39.6875 C 7.359375 -39.6875 6.117188 -40.171875 5.078125 -41.140625 C 4.046875 -42.109375 3.53125 -43.269531 3.53125 -44.625 C 3.53125 -45.988281 4.046875 -47.148438 5.078125 -48.109375 C 6.117188 -49.066406 7.359375 -49.546875 8.796875 -49.546875 C 10.242188 -49.546875 11.484375 -49.066406 12.515625 -48.109375 C 13.554688 -47.148438 14.078125 -45.988281 14.078125 -44.625 C 14.078125 -43.269531 13.554688 -42.109375 12.515625 -41.140625 C 11.484375 -40.171875 10.242188 -39.6875 8.796875 -39.6875 Z M 8.796875 -39.6875 "/></g></g><g style="fill:#ffffff;fill-opacity:1;"><g transform="translate(182.97408, 180.344823)"><path style="stroke:none" d="M 33.140625 -25.125 L 24.21875 -24.578125 C 23.96875 -25.710938 23.347656 -26.679688 22.359375 -27.484375 C 21.367188 -28.296875 20.023438 -28.703125 18.328125 -28.703125 C 16.816406 -28.703125 15.539062 -28.382812 14.5 -27.75 C 13.457031 -27.113281 12.941406 -26.269531 12.953125 -25.21875 C 12.941406 -24.382812 13.273438 -23.675781 13.953125 -23.09375 C 14.628906 -22.507812 15.785156 -22.046875 17.421875 -21.703125 L 23.78125 -20.421875 C 30.539062 -19.023438 33.925781 -15.847656 33.9375 -10.890625 C 33.9375 -8.585938 33.257812 -6.566406 31.90625 -4.828125 C 30.5625 -3.085938 28.710938 -1.734375 26.359375 -0.765625 C 24.015625 0.203125 21.320312 0.6875 18.28125 0.6875 C 13.632812 0.6875 9.925781 -0.285156 7.15625 -2.234375 C 4.394531 -4.179688 2.785156 -6.832031 2.328125 -10.1875 L 11.921875 -10.6875 C 12.222656 -9.25 12.925781 -8.164062 14.03125 -7.4375 C 15.144531 -6.707031 16.570312 -6.34375 18.3125 -6.34375 C 20.019531 -6.34375 21.394531 -6.675781 22.4375 -7.34375 C 23.488281 -8.019531 24.019531 -8.875 24.03125 -9.90625 C 23.988281 -11.644531 22.488281 -12.8125 19.53125 -13.40625 L 13.4375 -14.625 C 6.632812 -15.976562 3.242188 -19.328125 3.265625 -24.671875 C 3.253906 -28.054688 4.609375 -30.722656 7.328125 -32.671875 C 10.054688 -34.628906 13.671875 -35.609375 18.171875 -35.609375 C 22.609375 -35.609375 26.101562 -34.671875 28.65625 -32.796875 C 31.21875 -30.921875 32.710938 -28.363281 33.140625 -25.125 Z M 33.140625 -25.125 "/></g></g><g style="fill:#ffffff;fill-opacity:1;"><g transform="translate(213.95634, 180.344823)"><path style="stroke:none" d="M 13.640625 -20.328125 L 13.640625 0 L 3.890625 0 L 3.890625 -46.875 L 13.359375 -46.875 L 13.359375 -28.953125 L 13.78125 -28.953125 C 14.582031 -31.023438 15.863281 -32.648438 17.625 -33.828125 C 19.394531 -35.015625 21.613281 -35.609375 24.28125 -35.609375 C 27.945312 -35.609375 30.890625 -34.429688 33.109375 -32.078125 C 35.335938 -29.734375 36.445312 -26.503906 36.4375 -22.390625 L 36.4375 0 L 26.6875 0 L 26.6875 -20.640625 C 26.695312 -22.804688 26.148438 -24.492188 25.046875 -25.703125 C 23.941406 -26.910156 22.398438 -27.515625 20.421875 -27.515625 C 18.429688 -27.515625 16.804688 -26.882812 15.546875 -25.625 C 14.296875 -24.363281 13.660156 -22.597656 13.640625 -20.328125 Z M 13.640625 -20.328125 "/></g></g><g style="fill:#ffffff;fill-opacity:1;"><g transform="translate(248.966311, 180.344823)"><path style="stroke:none" d="M 13.921875 0.65625 C 10.554688 0.65625 7.769531 -0.21875 5.5625 -1.96875 C 3.351562 -3.71875 2.25 -6.332031 2.25 -9.8125 C 2.25 -12.4375 2.863281 -14.492188 4.09375 -15.984375 C 5.332031 -17.484375 6.953125 -18.582031 8.953125 -19.28125 C 10.960938 -19.976562 13.128906 -20.429688 15.453125 -20.640625 C 18.503906 -20.953125 20.6875 -21.273438 22 -21.609375 C 23.3125 -21.941406 23.96875 -22.671875 23.96875 -23.796875 L 23.96875 -23.9375 C 23.96875 -25.382812 23.507812 -26.503906 22.59375 -27.296875 C 21.6875 -28.097656 20.40625 -28.5 18.75 -28.5 C 16.988281 -28.5 15.585938 -28.113281 14.546875 -27.34375 C 13.515625 -26.582031 12.832031 -25.613281 12.5 -24.4375 L 3.484375 -25.171875 C 4.148438 -28.378906 5.8125 -30.921875 8.46875 -32.796875 C 11.132812 -34.671875 14.578125 -35.609375 18.796875 -35.609375 C 21.398438 -35.609375 23.835938 -35.195312 26.109375 -34.375 C 28.390625 -33.550781 30.226562 -32.265625 31.625 -30.515625 C 33.019531 -28.773438 33.71875 -26.507812 33.71875 -23.71875 L 33.71875 0 L 24.46875 0 L 24.46875 -4.875 L 24.1875 -4.875 C 23.332031 -3.238281 22.054688 -1.90625 20.359375 -0.875 C 18.660156 0.144531 16.515625 0.65625 13.921875 0.65625 Z M 16.703125 -6.0625 C 18.835938 -6.0625 20.59375 -6.679688 21.96875 -7.921875 C 23.34375 -9.171875 24.03125 -10.71875 24.03125 -12.5625 L 24.03125 -16.296875 C 23.644531 -16.035156 23.050781 -15.804688 22.25 -15.609375 C 21.457031 -15.410156 20.601562 -15.238281 19.6875 -15.09375 C 18.78125 -14.945312 17.96875 -14.820312 17.25 -14.71875 C 15.539062 -14.46875 14.164062 -13.984375 13.125 -13.265625 C 12.082031 -12.554688 11.5625 -11.515625 11.5625 -10.140625 C 11.5625 -8.796875 12.046875 -7.78125 13.015625 -7.09375 C 13.984375 -6.40625 15.210938 -6.0625 16.703125 -6.0625 Z M 16.703125 -6.0625 "/></g></g></g></g></g></svg>